<?xml version="1.0" encoding="UTF-8" standalone="no"?>
<svg width="80px" height="80px" viewBox="0 0 80 80" version="1.1" xmlns="http://www.w3.org/2000/svg" xmlns:xlink="http://www.w3.org/1999/xlink">
    <!-- Generator: Sketch 41 (35326) - http://www.bohemiancoding.com/sketch -->
    <title>Combined Shape</title>
    <desc>Created with Sketch.</desc>
    <defs></defs>
    <g id="Page-1" stroke="none" stroke-width="1" fill="none" fill-rule="evenodd">
        <g id="fitstar.yoga.mobile-copy" transform="translate(-40.000000, -6189.000000)" fill="#79C39C">
            <path d="M80,6269 C102.09139,6269 120,6251.09139 120,6229 C120,6206.90861 102.09139,6189 80,6189 C57.90861,6189 40,6206.90861 40,6229 C40,6251.09139 57.90861,6269 80,6269 Z M80.3516738,6205.00809 C80.7803964,6205.01389 81.2073396,6205.26921 81.3799299,6205.77767 L86.3614021,6221.12872 C86.6459807,6222.0035 87.2886892,6222.40081 87.9710615,6222.40081 L104.13312,6222.40081 C105.176703,6222.40081 105.616471,6223.75113 104.766586,6224.37388 L91.6775141,6234.01728 C91.2265784,6234.35563 90.8961746,6235.04813 91.1137482,6235.75952 L96.1260273,6251.26317 C96.4502697,6252.2632 95.33198,6253.10368 94.4559094,6252.48709 L81.3006022,6243.02366 C80.6894707,6242.60169 79.9608881,6242.604 79.3882652,6243.02366 L66.2583737,6252.46513 C65.3626637,6253.10753 64.2347469,6252.26936 64.5612998,6251.24968 L79.2981551,6205.77767 C79.4643489,6205.27166 79.8910126,6205.01392 80.3218034,6205.00809 L80.3516739,6205.00809 L80.3516738,6205.00809 Z M55.0231052,6223.71471 C55.0780456,6223.97166 55.2333806,6224.22798 55.5183257,6224.44363 L66.004602,6232.10162 C66.5514241,6232.48622 67.4009238,6232.28275 67.6519998,6231.55094 L70.1954927,6223.83244 C70.4569661,6223.01007 69.784606,6222.40081 69.1661579,6222.40081 L56.0759302,6222.40081 C55.5501212,6222.40081 55.1248364,6222.79406 55.0231052,6223.27491 L55.0231052,6223.71471 L55.0231052,6223.71471 Z" id="Combined-Shape"></path>
        </g>
    </g>
</svg>