<?xml version="1.0" encoding="UTF-8" standalone="no"?>
<svg width="26px" height="26px" viewBox="0 0 26 26" version="1.1" xmlns="http://www.w3.org/2000/svg" xmlns:xlink="http://www.w3.org/1999/xlink">
    <!-- Generator: Sketch 41 (35326) - http://www.bohemiancoding.com/sketch -->
    <title>ico-anytime</title>
    <desc>Created with Sketch.</desc>
    <defs></defs>
    <g id="Design" stroke="none" stroke-width="1" fill="none" fill-rule="evenodd">
        <g id="fitstar.yoga" transform="translate(-824.000000, -1287.000000)" stroke="#56C4CC">
            <g id="Features" transform="translate(0.000000, 737.000000)">
                <g id="feature-3" transform="translate(804.000000, 533.000000)">
                    <g id="ico-anytime" transform="translate(21.000000, 18.000000)">
                        <path d="M18.7897674,11.9209412 C18.7897674,15.7157647 15.7506977,18.7905882 12,18.7905882 C9.45767442,18.7905882 7.24186047,17.3788235 6.08093023,15.2837647 C6.98511628,15.7214118 7.99813953,15.9670588 9.06976744,15.9670588 C12.8986047,15.9670588 15.9990698,12.8301176 15.9990698,8.95623529 C15.9990698,7.872 15.7562791,6.84423529 15.3209302,5.92941176 C17.3916279,7.104 18.7897674,9.34588235 18.7897674,11.9209412" id="Fill-2" stroke-width="0.5" fill="#56C4CC"></path>
                        <path d="M12.0047207,4.48602353 C7.95234866,4.48602353 4.65597656,7.82117647 4.65597656,11.9212235 C4.65597656,16.0209882 7.95234866,19.3567059 12.0047207,19.3567059 C16.0570928,19.3567059 19.3534649,16.0209882 19.3534649,11.9212235 C19.3534649,7.82117647 16.0570928,4.48602353 12.0047207,4.48602353" id="Fill-1" stroke-width="1.5"></path>
                        <path d="M11.999114,21.4588235 L11.999114,24 M17.2651605,20.0213647 L18.5681373,22.0483765 M20.7733466,15.936 L22.9400442,16.9567059 M21.5667419,10.3632 L23.931021,10.0088471 M19.2995791,5.39068235 L21.1026489,3.80357647 M14.7934396,2.4384 L15.4821838,0.123670588 M9.20478843,2.43868235 L8.51576517,0.123388235 M4.69864889,5.39068235 L2.89557912,3.80357647 M2.43120703,10.3632 L0.0672070313,10.0088471 M3.22488145,15.936 L1.05818378,16.9567059 M6.7330675,20.0213647 L5.43009075,22.0483765 M11.999114,21.4588235 L11.999114,24" id="Stroke-3" stroke-width="1.5" stroke-linecap="round"></path>
                    </g>
                </g>
            </g>
        </g>
    </g>
</svg>