<?xml version="1.0" encoding="UTF-8" standalone="no"?>
<svg width="19px" height="21px" viewBox="0 0 19 21" version="1.1" xmlns="http://www.w3.org/2000/svg" xmlns:xlink="http://www.w3.org/1999/xlink">
    <!-- Generator: Sketch 40.1 (33804) - http://www.bohemiancoding.com/sketch -->
    <title>Page 1</title>
    <desc>Created with Sketch.</desc>
    <defs></defs>
    <g id="Design" stroke="none" stroke-width="1" fill="none" fill-rule="evenodd">
        <g id="fitstar.yoga" transform="translate(-827.000000, -1147.000000)" fill="#56C4CC">
            <g id="Features" transform="translate(0.000000, 737.000000)">
                <g id="feature-2" transform="translate(827.000000, 404.000000)">
                    <g id="Page-1" transform="translate(0.000000, 6.000000)">
                        <path d="M17.8444637,14.3051222 C16.9829147,13.5569 12.9902951,12.6095667 12.0488007,12.2284556 C11.2912586,11.9220111 11.3440381,11.5362333 11.3440381,11.5362333 L11.347919,11.0330111 C12.0767428,10.5212333 12.6666322,9.72478889 13.025999,8.75878889 C13.0360892,8.75956667 13.0461794,8.76034444 13.0562696,8.76034444 C13.646159,8.76034444 14.1235037,8.02301111 14.1235037,7.11378889 C14.1235037,6.96134444 14.1103088,6.81512222 14.0854713,6.67512222 C14.3066798,6.12212222 14.4285386,5.5209 14.4285386,4.8909 C14.4285386,2.18967778 12.1986015,0.000233333333 9.44863047,0.000233333333 C9.06442621,0.000233333333 8.69031217,0.0430111111 8.33094536,0.1239 C8.12215557,0.170566667 8.13379813,0.719677778 7.92423217,0.698677778 C7.68284323,0.674566667 7.25439728,0.511233333 7.05880238,0.613122222 C5.48628153,1.43601111 4.46872238,3.01956667 4.46872238,4.8909 C4.46872238,5.5209 4.59135728,6.12212222 4.81178962,6.67512222 C4.78695217,6.81512222 4.77375728,6.96134444 4.77375728,7.11301111 C4.77375728,8.02301111 5.25110196,8.76034444 5.84099132,8.76034444 C5.85108153,8.76034444 5.86117174,8.75956667 5.87126196,8.75878889 C6.21432919,9.67812222 6.76541004,10.4442333 7.44611132,10.9575667 L7.44999217,11.5362333 C7.44999217,11.5362333 7.50354791,11.9212333 6.74522962,12.2284556 C5.80451132,12.6095667 1.81189174,13.5561222 0.950342809,14.3051222 C0.233161532,14.9281222 -0.0617831489,15.4585667 0.0104006809,16.6890111 C0.0779274894,17.8440111 0.245580255,18.5354556 0.245580255,18.5354556 C0.245580255,18.5354556 4.67440749,20.7334556 9.39740323,20.7334556 C14.120399,20.7334556 18.5492262,18.5354556 18.5492262,18.5354556 C18.5492262,18.5354556 18.716879,17.8440111 18.7844058,16.6890111 C18.8565896,15.4585667 18.5616449,14.9281222 17.8444637,14.3051222" id="Fill-1"></path>
                    </g>
                </g>
            </g>
        </g>
    </g>
</svg>