<?xml version="1.0" encoding="UTF-8" standalone="no"?>
<svg width="115px" height="23px" viewBox="0 0 115 23" version="1.1" xmlns="http://www.w3.org/2000/svg" xmlns:xlink="http://www.w3.org/1999/xlink">
    <!-- Generator: Sketch 3.6.1 (26313) - http://www.bohemiancoding.com/sketch -->
    <title>yoga logo</title>
    <desc>Created with Sketch.</desc>
    <defs>
        <path id="path-1" d="M0,0 L114.995653,0 L114.995653,22.8635593 L0,22.8635593 L0,0 Z"></path>
    </defs>
    <g id="Page-1" stroke="none" stroke-width="1" fill="none" fill-rule="evenodd">
        <g id="FitStar.RevisedFooter" transform="translate(-788.000000, -1606.000000)">
            <g id="Footer" transform="translate(-18.000000, 1316.000000)">
                <g id="REVISIONS" transform="translate(14.000000, 175.000000)">
                    <g id="yoga-logo" transform="translate(792.000000, 115.000000)">
                        <path d="M55.4606155,19.942009 C60.381509,19.942009 64.2494214,16.158509 64.2494214,11.4817124 C64.2494214,6.86475474 60.381509,3.10971236 55.4606155,3.10971236 C50.5988028,3.10971236 46.7931327,6.86475474 46.7931327,11.4817124 C46.7931327,16.158509 50.5988028,19.942009 55.4606155,19.942009 M55.4606155,1.35294118 C61.5309162,1.35294118 66.361509,5.88023779 66.361509,11.4817124 C66.361509,17.1710937 61.5309162,21.7284073 55.4606155,21.7284073 C49.4205468,21.7284073 44.6470588,17.1710937 44.6470588,11.4817124 C44.6470588,5.88023779 49.4205468,1.35294118 55.4606155,1.35294118" id="Fill-1" fill="#FFFFFF"></path>
                        <path d="M82.9711401,12.6137802 L89.5852208,12.6137802 L89.5852208,17.7371276 C87.8951951,19.0763903 85.297025,19.942009 82.7306676,19.942009 C77.3837604,19.942009 73.8211315,16.0103734 73.8211315,11.539992 C73.8211315,6.89282253 77.5943961,3.10971236 82.5488806,3.10971236 C85.1450748,3.10971236 87.8951951,4.09286491 89.7063463,5.70130558 L91.12547,4.44994965 C88.7106676,2.45479711 85.6289837,1.35294118 82.5488806,1.35294118 C76.5088119,1.35294118 71.7058824,5.88023779 71.7058824,11.5113395 C71.7058824,17.1410768 76.4779872,21.7284073 82.6095421,21.7284073 C85.8103755,21.7284073 89.1026951,20.5378649 91.4264064,18.6902632 L91.4264064,10.85467 L83.7974803,10.85467 L82.9711401,12.6137802 Z" id="Fill-3" fill="#FFFFFF"></path>
                        <path d="M42.09222,1.35294118 L36.3117905,13.642153 L36.1319795,13.642153 L30.3519451,1.35294118 L28.4117647,1.35294118 L35.2518936,15.8955683 L32.9416187,20.8072378 L34.8819967,20.8072378 L44.0322029,1.35294118 L42.09222,1.35294118 Z" id="Fill-5" fill="#FFFFFF"></path>
                        <path d="M105.850212,1.35294118 L103.856089,1.35294118 L94.7058824,20.8072378 L96.7901092,20.8072378 L102.744619,7.91066999 L104.702781,3.67808524 L104.88279,3.67808524 L105.647283,5.32960219 L109.142532,12.8815937 L102.533589,12.8815937 L101.790633,14.4912039 L109.865333,14.4912039 L112.796449,20.8072378 L115.000221,20.8072378 L105.850212,1.35294118 Z" id="Fill-7" fill="#FFFFFF"></path>
                        <g id="Group-11">
                            <mask id="mask-2" fill="white">
                                <use xlink:href="#path-1"></use>
                            </mask>
                            <g id="Clip-10"></g>
                            <path d="M16.6975258,18.3684237 L11.5879296,14.7071356 L6.47892612,18.3684237 L8.4309622,12.4431949 L9.63747423,8.78171186 L11.5889175,2.85804237 L13.539768,8.78171186 L19.8552835,8.78171186 L14.7458849,12.4447542 L16.6975258,18.3684237 Z M3.32097079,8.78171186 L8.30667526,8.78171186 L7.35486254,11.6719153 L3.32097079,8.78171186 Z M11.5889175,0 C5.18863402,0 0,5.11827966 0,11.4319746 C0,17.7458644 5.18863402,22.8635593 11.5889175,22.8635593 C17.9893986,22.8635593 23.1778351,17.7458644 23.1778351,11.4319746 C23.1778351,5.11827966 17.9893986,0 11.5889175,0 L11.5889175,0 Z" id="Fill-9" fill="#FFFFFF" mask="url(#mask-2)"></path>
                        </g>
                    </g>
                </g>
            </g>
        </g>
    </g>
</svg>