<?xml version="1.0" encoding="UTF-8"?>
<svg width="13px" height="21px" viewBox="0 0 13 21" version="1.1" xmlns="http://www.w3.org/2000/svg" xmlns:xlink="http://www.w3.org/1999/xlink">
    <!-- Generator: Sketch 41.2 (35397) - http://www.bohemiancoding.com/sketch -->
    <title>step_icon</title>
    <desc>Created with Sketch.</desc>
    <defs></defs>
    <g id="Page-1" stroke="none" stroke-width="1" fill="none" fill-rule="evenodd">
        <g id="January-Promo" transform="translate(-498.000000, -902.000000)" fill="#01B1BA">
            <g id="Workout-Recco's" transform="translate(-173.000000, 493.000000)">
                <g id="Feature-1">
                    <g id="recommendation-Tile" transform="translate(671.000000, 409.000000)">
                        <g id="step_group">
                            <g id="step_icon">
                                <path d="M9.68635152,2.01787094 C9.68635152,3.13345134 8.77780202,4.03597474 7.65529697,4.03597474 C6.53255758,4.03597474 5.62424242,3.13345134 5.62424242,2.01787094 C5.62424242,0.902523399 6.53255758,0 7.65529697,0 C8.77780202,0 9.68635152,0.902523399 9.68635152,2.01787094 Z M12.3958303,10.6342218 C11.9990869,10.4567907 9.38100202,9.1640121 9.38100202,9.1640121 C9.38100202,9.1640121 8.45276768,7.19736797 7.97259798,6.12137194 C7.52054949,5.10824518 7.19528081,4.84442707 6.55247677,4.84442707 L5.56073535,4.84442707 C5.04119596,4.84442707 4.85090909,5.0335006 4.53337374,5.21093167 L1.85201616,7.47725268 C1.61767273,7.61114096 1.4669899,7.81208979 1.37606465,8.09593294 L0.800751515,11.9309588 C0.717559596,12.5421879 1.04282828,12.8022804 1.41168485,12.877025 C1.70930101,12.9401272 2.15736566,12.7904051 2.24852525,12.3605656 C2.32,12.0059363 2.86320808,8.86829365 2.86320808,8.86829365 L4.61281616,7.53220509 C4.32340202,8.86456806 4.0297697,10.3226696 3.93439192,10.8195697 C3.76777374,11.6671407 4.1921697,12.3093387 4.5293899,12.8136901 C4.83473939,13.2710058 8.79373737,19.4713136 9.31351111,20.1449463 C9.8368,20.8192775 10.3132202,21.1541146 11.0389818,20.7519841 C11.6496808,20.4129557 11.5465697,19.640595 11.2095838,19.0687174 C10.872598,18.4968398 6.8779798,12.0413293 6.8779798,12.0413293 L7.54820202,9.1640121 C7.54820202,9.1640121 8.01220202,9.82227671 8.25029495,10.1927397 C8.36512323,10.3664452 8.48440404,10.4372314 8.79772121,10.6065127 C9.16657778,10.8076944 10.9557899,11.6156811 11.498998,11.8601727 C11.9829172,12.0729968 12.581899,12.1558911 12.8202263,11.73001 C13.0620687,11.3080873 12.7569535,10.7997775 12.3958303,10.6342218 Z M3.55756768,13.2435296 L2.7483798,16.0775369 C2.7483798,16.0775369 1.05852929,18.5056881 0.590311111,19.1835121 C0.237389899,19.6957802 -0.028589899,20.3186518 0.574610101,20.7720091 C1.25303434,21.2803189 1.79647677,20.6180958 2.14541414,20.2238822 C2.46669899,19.8652944 3.77574141,18.0481395 4.14459798,17.5868653 C4.39065859,17.2755459 4.52540606,17.0156863 4.63273535,16.7553609 C4.69999192,16.5821211 4.96597172,15.8647128 5.13633939,15.3994801 L3.55756768,13.2435296 Z" id="Combined-Shape"></path>
                            </g>
                        </g>
                    </g>
                </g>
            </g>
        </g>
    </g>
</svg>