<?xml version="1.0" encoding="UTF-8"?>
<svg width="189px" height="55px" viewBox="0 0 189 55" version="1.1" xmlns="http://www.w3.org/2000/svg" xmlns:xlink="http://www.w3.org/1999/xlink">
    <!-- Generator: Sketch 41.2 (35397) - http://www.bohemiancoding.com/sketch -->
    <title>fitstar_updated_logo_0727</title>
    <desc>Created with Sketch.</desc>
    <defs>
        <path d="M21.8520761,0.00704268292 C22.2216169,0.0120854334 22.589624,0.234282159 22.7383896,0.676768293 L27.032209,14.0360671 C27.2775037,14.7973476 27.8314914,15.1431098 28.4196677,15.1431098 L42.350682,15.1431098 C43.2502067,15.1431098 43.6292684,16.3182317 42.8967035,16.8601829 L31.6144738,25.252378 C31.2257862,25.5468293 30.9409921,26.1494817 31.1285313,26.7685671 L35.448905,40.2606707 C35.7283883,41.1309451 34.7644697,41.862378 34.0093337,41.3257927 L22.6700124,33.0902134 C22.1432428,32.7229878 21.5152352,32.725 21.0216584,33.0902134 L9.70424438,41.3066768 C8.93218006,41.8657317 7.95996321,41.136311 8.24143808,40.2489329 L20.9439873,0.676768293 C21.0872394,0.236412438 21.4550055,0.0121098272 21.826329,0.00704268292 L21.8520761,0.00704268293 L21.8520761,0.00704268292 L21.8520761,0.00704268292 Z M0.0199156745,16.286538 C0.0672719979,16.5101453 0.201164281,16.733209 0.446774967,16.9208841 L9.48550389,23.5852744 C9.95684152,23.9199695 10.6890745,23.7428963 10.9054915,23.1060366 L13.0978753,16.3889939 C13.3232544,15.6733232 12.7437083,15.1431098 12.210632,15.1431098 L0.927406581,15.1431098 C0.474181321,15.1431098 0.107603767,15.4853411 0.0199156741,15.9038005 L0.0199156746,16.2865382 L0.0199156745,16.286538 L0.0199156745,16.286538 Z" id="path-1"></path>
        <linearGradient x1="50%" y1="0%" x2="50%" y2="100%" id="linearGradient-3">
            <stop stop-color="#FFFFFF" offset="0%"></stop>
            <stop stop-color="#000000" offset="100%"></stop>
        </linearGradient>
        <linearGradient x1="100%" y1="0%" x2="100%" y2="100%" id="linearGradient-4">
            <stop stop-color="#02D8DD" offset="0%"></stop>
            <stop stop-color="#01B0B9" offset="100%"></stop>
        </linearGradient>
        <polygon id="path-5" points="0.0199156746 42.1234928 43.2833193 42.1234928 43.2833193 0.00704268293 0.0199156746 0.00704268293"></polygon>
    </defs>
    <g id="Page-1" stroke="none" stroke-width="1" fill="none" fill-rule="evenodd">
        <g id="January-Promo" transform="translate(-155.000000, -110.000000)">
            <g id="Hero" transform="translate(0.000000, -272.000000)">
                <g id="fitstar_updated_logo_0727" transform="translate(155.000000, 382.000000)">
                    <path d="M78.5215303,15.1558537 L76.5485508,15.1558537 C76.1266704,15.1558537 75.7811334,15.5046341 75.7811334,15.9312195 L75.7811334,36.2299085 C75.7811334,36.6561585 76.1266704,37.0052744 76.5485508,37.0052744 L78.5215303,37.0052744 C78.9434106,37.0052744 79.2889476,36.6561585 79.2889476,36.2299085 L79.2889476,15.9312195 C79.2889476,15.5046341 78.9434106,15.1558537 78.5215303,15.1558537" id="Fill-1" fill="#FFFFFF"></path>
                    <path d="M100.391928,15.1541768 L84.7451786,15.1541768 C84.3232982,15.1541768 83.9780932,15.5029573 83.9780932,15.9295427 L83.9780932,17.9229573 C83.9780932,18.3492073 84.3232982,18.6979878 84.7451786,18.6979878 L90.8148123,18.6979878 L90.8148123,36.2282317 C90.8148123,36.6544817 91.1600174,37.0032622 91.5822297,37.0032622 L93.5552092,37.0032622 C93.9770895,37.0032622 94.3222946,36.6544817 94.3222946,36.2282317 L94.3222946,18.6979878 L100.391928,18.6979878 C100.813809,18.6979878 101.159346,18.3492073 101.159346,17.9229573 L101.159346,15.9295427 C101.159346,15.5029573 100.813809,15.1541768 100.391928,15.1541768" id="Fill-2" fill="#FFFFFF"></path>
                    <path d="M138.883948,15.1558537 L123.237199,15.1558537 C122.815318,15.1558537 122.470113,15.5046341 122.470113,15.9312195 L122.470113,17.9246341 C122.470113,18.3508841 122.815318,18.6996646 123.237199,18.6996646 L129.306832,18.6996646 L129.306832,36.2299085 C129.306832,36.6561585 129.652037,37.0052744 130.07425,37.0052744 L132.047229,37.0052744 C132.46911,37.0052744 132.814315,36.6561585 132.814315,36.2299085 L132.814315,18.6996646 L138.883948,18.6996646 C139.305829,18.6996646 139.651366,18.3508841 139.651366,17.9246341 L139.651366,15.9312195 C139.651366,15.5046341 139.305829,15.1558537 138.883948,15.1558537" id="Fill-3" fill="#FFFFFF"></path>
                    <path d="M146.341041,28.0590549 L149.742638,19.7034146 L153.144235,28.0590549 L146.341041,28.0590549 L146.341041,28.0590549 Z M151.975849,15.8728659 C151.815196,15.4784756 151.338547,15.1558537 150.916667,15.1558537 L148.568609,15.1558537 C148.146397,15.1558537 147.669748,15.4784756 147.509427,15.8728659 L139.198616,36.2882622 C139.037963,36.6823171 139.252056,37.0052744 139.673937,37.0052744 L141.932042,37.0052744 C142.353923,37.0052744 142.830571,36.6823171 142.991224,36.2882622 L144.89815,31.6035366 L154.587126,31.6035366 L156.494052,36.2882622 C156.654373,36.6823171 157.131021,37.0052744 157.553234,37.0052744 L159.811007,37.0052744 C160.23322,37.0052744 160.446981,36.6823171 160.28666,36.2882622 L151.975849,15.8728659 L151.975849,15.8728659 Z" id="Fill-4" fill="#FFFFFF"></path>
                    <path d="M167.699606,25.2503659 L167.699606,18.7003354 L174.193444,18.7003354 C175.980544,18.7003354 177.43472,20.1692378 177.43472,21.9751829 C177.43472,23.7814634 175.980544,25.2503659 174.193444,25.2503659 L167.699606,25.2503659 L167.699606,25.2503659 Z M181.191812,36.3523171 L176.206586,28.4846341 C178.947979,27.6170427 180.942866,25.0273476 180.942866,21.9751829 C180.942866,18.215061 177.915019,15.1558537 174.193444,15.1558537 L164.959541,15.1558537 C164.537329,15.1558537 164.192124,15.5046341 164.192124,15.9312195 L164.192124,36.2299085 C164.192124,36.6561585 164.537329,37.0052744 164.959541,37.0052744 L166.932521,37.0052744 C167.354401,37.0052744 167.699606,36.6561585 167.699606,36.2299085 L167.699606,28.7945122 L172.238056,28.7945122 L177.027112,36.3523171 C177.254483,36.7111585 177.786231,37.0052744 178.208112,37.0052744 L180.838309,37.0052744 C181.260189,37.0052744 181.419514,36.7111585 181.191812,36.3523171 L181.191812,36.3523171 Z" id="Fill-5" fill="#FFFFFF"></path>
                    <path d="M70.0832589,15.1558537 L55.9318444,15.1558537 C55.509964,15.1558537 55.1644271,15.5046341 55.1644271,15.9312195 L55.1644271,36.2299085 C55.1644271,36.6561585 55.509964,37.0052744 55.9318444,37.0052744 L57.9054878,37.0052744 C58.3273681,37.0052744 58.6725732,36.6561585 58.6725732,36.2299085 L58.6725732,28.0526829 L67.6694792,28.0526829 C68.0913595,28.0526829 68.4368965,27.7035671 68.4368965,27.2773171 L68.4368965,25.2832317 C68.4368965,24.8569817 68.0913595,24.5082012 67.6694792,24.5082012 L58.6725732,24.5082012 L58.6725732,18.7003354 L70.0832589,18.7003354 C70.5051393,18.7003354 70.8506763,18.3515549 70.8506763,17.9249695 L70.8506763,15.9312195 C70.8506763,15.5046341 70.5051393,15.1558537 70.0832589,15.1558537" id="Fill-6" fill="#FFFFFF"></path>
                    <path d="M118.226747,26.472439 C117.8915,26.1343902 117.48688,25.8147866 117.024172,25.5223476 C116.356997,25.083689 115.607172,24.7422866 114.795608,24.5071951 C113.994002,24.2764634 113.085847,24.0393598 112.095706,23.8035976 C110.484528,23.4541463 109.36228,23.0128049 108.758835,22.4909756 C108.161365,22.0023476 107.87292,21.346372 107.901133,20.5435061 C107.957561,20.0840549 108.100954,19.7205183 108.327993,19.4632927 C108.555031,19.2040549 108.772776,18.9984756 108.974256,18.8522561 C109.689893,18.3609451 110.634892,18.1117683 111.783362,18.1117683 C113.611953,18.1117683 115.100318,18.6932927 116.207629,19.8399085 L116.36961,20.0075915 C116.518646,20.1920427 116.773898,20.3493293 117.150305,20.0555488 L118.863385,18.7171037 C119.044285,18.5755793 119.151166,18.4078963 119.171746,18.2321646 C119.190666,18.0725305 119.137225,17.9075305 119.019391,17.7582927 C119.01574,17.7529268 118.932426,17.6254878 118.669539,17.3541768 C117.942285,16.602622 117.109478,15.9922561 116.193025,15.5395122 C114.829465,14.8956098 113.346079,14.5689634 111.783362,14.5689634 C110.859607,14.5689634 109.984977,14.6880183 109.184699,14.9227744 C108.38608,15.1582012 107.658494,15.4848476 107.021856,15.8939939 C106.265725,16.3940244 105.654645,17.0339024 105.205879,17.7955183 C104.755121,18.558811 104.497213,19.377439 104.439457,20.2282622 C104.35216,21.1957927 104.484599,22.1331402 104.833456,23.0154878 C105.009377,23.4296646 105.245378,23.8310976 105.533824,24.2090549 C105.820277,24.5870122 106.158844,24.9441768 106.540561,25.2701524 C107.583146,26.1196341 109.198308,26.7880183 111.341234,27.256189 C112.15479,27.4322561 112.886359,27.6170427 113.514698,27.8048476 C114.148017,27.9946646 114.701341,28.2374695 115.159733,28.5268902 C116.015775,29.0745427 116.46421,29.8190549 116.492755,30.7406402 C116.549847,31.8071037 116.13029,32.6401524 115.246034,33.2166463 C114.729222,33.5650915 114.170256,33.7928049 113.583739,33.8930793 C112.996891,33.9946951 112.464478,34.0460061 112.001439,34.0460061 C109.8615,34.0460061 108.016312,33.1844512 106.516662,31.4858232 L106.363975,31.3127744 C106.152205,31.0458232 105.893965,31.0293902 105.595894,31.2631402 L103.745728,32.7233232 C103.607646,32.8319817 103.529975,32.9647866 103.515038,33.1183841 C103.49645,33.3028354 103.572793,33.5064024 103.730127,33.6918598 C105.966658,36.2775305 108.749541,37.5884756 112.001439,37.5884756 C114.029187,37.5884756 115.762846,37.1283537 117.155947,36.2201829 C118.084018,35.5746037 118.8126,34.7418902 119.320781,33.7451829 C119.828299,32.7484756 120.056665,31.6773171 119.998578,30.5632317 C119.969368,29.5071646 119.674948,28.510122 119.122952,27.5989329 C118.863717,27.1907927 118.561994,26.8118293 118.226747,26.472439" id="Fill-7" fill="#FFFFFF"></path>
                    <polyline id="Fill-8" fill="#FFFFFF" points="187.906713 34.8515549 187.133985 36.2054268 186.361257 34.8515549 186.17405 34.8515549 186.17405 37.0052744 186.379845 37.0052744 186.379845 35.3354878 187.133985 36.6564939 187.888125 35.3354878 187.888125 37.0052744 188.093921 37.0052744 188.093921 34.8515549 187.906713 34.8515549"></polyline>
                    <polyline id="Fill-9" fill="#FFFFFF" points="184.067967 35.0581402 184.779289 35.0581402 184.779289 37.0052744 184.984752 37.0052744 184.984752 35.0581402 185.696073 35.0581402 185.696073 34.8515549 184.067967 34.8515549 184.067967 35.0581402"></polyline>
                    <g id="Group-12">
                        <mask id="mask-2" fill="white">
                            <use xlink:href="#path-1"></use>
                        </mask>
                        <g id="Clip-11"></g>
                        <g id="Fill-10" mask="url(#mask-2)">
                            <use fill="url(#linearGradient-3)" xlink:href="#path-5"></use>
                            <use fill="url(#linearGradient-4)" xlink:href="#path-5"></use>
                        </g>
                    </g>
                    <path d="M58.1979163,51.4592073 C58.4956556,51.4592073 58.769828,51.4042073 59.0197698,51.2945427 C59.2693795,51.1845427 59.4848008,51.0319512 59.6660334,50.8367683 C59.847266,50.64125 59.9883354,50.4071646 60.0889096,50.1345122 C60.1894837,49.8618598 60.2399368,49.5630488 60.2399368,49.2370732 C60.2399368,48.9198171 60.1894837,48.6246951 60.0889096,48.3517073 C59.9883354,48.0793902 59.847266,47.843628 59.6660334,47.64375 C59.4848008,47.4445427 59.2693795,47.2896037 59.0197698,47.179939 C58.769828,47.069939 58.4956556,47.014939 58.1979163,47.014939 C57.8915468,47.014939 57.6117316,47.069939 57.3581386,47.179939 C57.1042138,47.2896037 56.886801,47.4445427 56.7055684,47.64375 C56.5240038,47.843628 56.3809429,48.0793902 56.2763856,48.3517073 C56.1714964,48.6246951 56.1193837,48.9198171 56.1193837,49.2370732 C56.1193837,49.5630488 56.1714964,49.8618598 56.2763856,50.1345122 C56.3809429,50.4071646 56.5240038,50.64125 56.7055684,50.8367683 C56.886801,51.0319512 57.1042138,51.1845427 57.3581386,51.2945427 C57.6117316,51.4042073 57.8915468,51.4592073 58.1979163,51.4592073 L58.1979163,51.4592073 Z M60.3607585,46.9787195 C60.634599,47.2714939 60.842054,47.6112195 60.9831233,47.9978963 C61.1238608,48.3845732 61.1945614,48.7977439 61.1945614,49.2370732 C61.1945614,49.6767378 61.1238608,50.0899085 60.9831233,50.47625 C60.842054,50.8632622 60.634599,51.2026524 60.3607585,51.4957622 C60.0786198,51.7972561 59.7526666,52.0266463 59.3819031,52.1856098 C59.0111396,52.3445732 58.6168093,52.4237195 58.1979163,52.4237195 C57.7949558,52.4237195 57.4102513,52.3301524 57.043471,52.1430183 C56.6770226,51.9558841 56.3892411,51.723811 56.1797946,51.4471341 L56.1436144,51.4471341 L56.1436144,52.2040549 L55.1889897,52.2040549 L55.1889897,43.1327439 L56.1436144,43.1327439 L56.1436144,47.0273476 L56.1797946,47.0273476 C56.3892411,46.7587195 56.6770226,46.5289939 57.043471,46.3375 C57.4102513,46.1463415 57.7949558,46.0504268 58.1979163,46.0504268 C58.6168093,46.0504268 59.0111396,46.1299085 59.3819031,46.2885366 C59.7526666,46.4475 60.0786198,46.6772256 60.3607585,46.9787195 L60.3607585,46.9787195 Z" id="Fill-13" fill="#22AAAE"></path>
                    <polyline id="Fill-14" fill="#22AAAE" points="64.0584354 52.1064634 61.6054882 46.2580183 62.6444225 46.2580183 64.5782345 50.8733232 66.5117146 46.2580183 67.5509809 46.2580183 63.8772028 55 62.8379365 55 64.0584354 52.1064634"></polyline>
                    <polyline id="Fill-15" fill="#22AAAE" points="70.9827836 52.2040549 70.9827836 43.1327439 76.3235036 43.1327439 76.3235036 44.1458841 71.9855378 44.1458841 71.9855378 47.076311 75.6228038 47.076311 75.6228038 48.0894512 71.9855378 48.0894512 71.9855378 52.2040549 70.9827836 52.2040549"></polyline>
                    <path d="M77.4713104,52.2040549 L78.425935,52.2040549 L78.425935,46.2580183 L77.4713104,46.2580183 L77.4713104,52.2040549 Z M78.6071677,44.5121037 C78.6071677,44.6995732 78.5427736,44.8582012 78.4139856,44.9883232 C78.2851976,45.1187805 78.1278638,45.1838415 77.942648,45.1838415 C77.7574322,45.1838415 77.6024219,45.1187805 77.477617,44.9883232 C77.3524802,44.8582012 77.2900777,44.6995732 77.2900777,44.5121037 C77.2900777,44.3253049 77.3524802,44.168689 77.477617,44.0422561 C77.6024219,43.9161585 77.7574322,43.8527744 77.942648,43.8527744 C78.1278638,43.8527744 78.2851976,43.9161585 78.4139856,44.0422561 C78.5427736,44.168689 78.6071677,44.3253049 78.6071677,44.5121037 L78.6071677,44.5121037 Z" id="Fill-16" fill="#22AAAE"></path>
                    <path d="M80.0573607,46.2580183 L80.9153943,46.2580183 L80.9153943,43.9382927 L81.870019,43.9382927 L81.870019,46.2580183 L83.3925723,46.2580183 L83.3925723,47.2225305 L81.870019,47.2225305 L81.870019,50.42125 C81.870019,50.6657317 81.9443709,50.8632622 82.0937384,51.0135061 C82.2424421,51.1640854 82.4339645,51.2395427 82.6676418,51.2395427 L83.3925723,51.2395427 L83.3925723,52.2040549 L82.5830002,52.2040549 C82.0834487,52.2040549 81.6808201,52.0514634 81.3744506,51.7462805 C81.0684131,51.4407622 80.9153943,51.0359756 80.9153943,50.53125 L80.9153943,47.2225305 L80.0573607,47.2225305 L80.0573607,46.2580183" id="Fill-17" fill="#22AAAE"></path>
                    <path d="M88.0930035,51.4592073 C88.3910747,51.4592073 88.6649153,51.4042073 88.914857,51.2945427 C89.1644668,51.1845427 89.379888,51.0319512 89.5611206,50.8367683 C89.7423533,50.64125 89.8834226,50.4071646 89.9843287,50.1345122 C90.0845709,49.8618598 90.1353559,49.5630488 90.1353559,49.2370732 C90.1353559,48.9198171 90.0845709,48.6246951 89.9843287,48.3517073 C89.8834226,48.0793902 89.7423533,47.843628 89.5611206,47.64375 C89.379888,47.4445427 89.1644668,47.2896037 88.914857,47.179939 C88.6649153,47.069939 88.3910747,47.014939 88.0930035,47.014939 C87.7869659,47.014939 87.5071507,47.069939 87.2532259,47.179939 C86.999301,47.2896037 86.7818882,47.4445427 86.6006556,47.64375 C86.419091,47.843628 86.276362,48.0793902 86.1714728,48.3517073 C86.0669155,48.6246951 86.0148028,48.9198171 86.0148028,49.2370732 C86.0148028,49.5630488 86.0669155,49.8618598 86.1714728,50.1345122 C86.276362,50.4071646 86.419091,50.64125 86.6006556,50.8367683 C86.7818882,51.0319512 86.999301,51.1845427 87.2532259,51.2945427 C87.5071507,51.4042073 87.7869659,51.4592073 88.0930035,51.4592073 L88.0930035,51.4592073 Z M90.2558457,46.9787195 C90.5296863,47.2714939 90.7371412,47.6112195 90.8782106,47.9978963 C91.0192799,48.3845732 91.0899806,48.7977439 91.0899806,49.2370732 C91.0899806,49.6767378 91.0192799,50.0899085 90.8782106,50.47625 C90.7371412,50.8632622 90.5296863,51.2026524 90.2558457,51.4957622 C89.973707,51.7972561 89.6477538,52.0266463 89.2773223,52.1856098 C88.9065588,52.3445732 88.5118965,52.4237195 88.0930035,52.4237195 C87.6903749,52.4237195 87.3053385,52.3301524 86.9388901,52.1430183 C86.5721098,51.9558841 86.2843283,51.723811 86.0748818,51.4471341 L86.0387016,51.4471341 L86.0387016,52.2040549 L85.084077,52.2040549 L85.084077,43.1327439 L86.0387016,43.1327439 L86.0387016,47.0273476 L86.0748818,47.0273476 C86.2843283,46.7587195 86.5721098,46.5289939 86.9388901,46.3375 C87.3053385,46.1463415 87.6903749,46.0504268 88.0930035,46.0504268 C88.5118965,46.0504268 88.9065588,46.1299085 89.2773223,46.2885366 C89.6477538,46.4475 89.973707,46.6772256 90.2558457,46.9787195 L90.2558457,46.9787195 Z" id="Fill-18" fill="#22AAAE"></path>
                    <path d="M92.4313013,52.2040549 L93.3859259,52.2040549 L93.3859259,46.2580183 L92.4313013,46.2580183 L92.4313013,52.2040549 Z M93.5671586,44.5121037 C93.5671586,44.6995732 93.5024326,44.8582012 93.3739765,44.9883232 C93.2448566,45.1187805 93.0875227,45.1838415 92.9026389,45.1838415 C92.7170912,45.1838415 92.5620809,45.1187805 92.437276,44.9883232 C92.3121391,44.8582012 92.2500686,44.6995732 92.2500686,44.5121037 C92.2500686,44.3253049 92.3121391,44.168689 92.437276,44.0422561 C92.5620809,43.9161585 92.7170912,43.8527744 92.9026389,43.8527744 C93.0875227,43.8527744 93.2448566,43.9161585 93.3739765,44.0422561 C93.5024326,44.168689 93.5671586,44.3253049 93.5671586,44.5121037 L93.5671586,44.5121037 Z" id="Fill-19" fill="#22AAAE"></path>
                    <path d="M94.7753762,46.2580183 L95.6334098,46.2580183 L95.6334098,43.9382927 L96.5880345,43.9382927 L96.5880345,46.2580183 L98.1105878,46.2580183 L98.1105878,47.2225305 L96.5880345,47.2225305 L96.5880345,50.42125 C96.5880345,50.6657317 96.6623863,50.8632622 96.8117539,51.0135061 C96.9604576,51.1640854 97.1516481,51.2395427 97.3856572,51.2395427 L98.1105878,51.2395427 L98.1105878,52.2040549 L97.3010156,52.2040549 C96.8014641,52.2040549 96.3988356,52.0514634 96.0924661,51.7462805 C95.7864286,51.4407622 95.6334098,51.0359756 95.6334098,50.53125 L95.6334098,47.2225305 L94.7753762,47.2225305 L94.7753762,46.2580183" id="Fill-20" fill="#22AAAE"></path>
                </g>
            </g>
        </g>
    </g>
</svg>