<?xml version="1.0" encoding="UTF-8" standalone="no"?>
<svg width="17px" height="25px" viewBox="0 0 17 25" version="1.1" xmlns="http://www.w3.org/2000/svg" xmlns:xlink="http://www.w3.org/1999/xlink">
    <!-- Generator: Sketch 40.1 (33804) - http://www.bohemiancoding.com/sketch -->
    <title>Fill 1</title>
    <desc>Created with Sketch.</desc>
    <defs></defs>
    <g id="Design" stroke="none" stroke-width="1" fill="none" fill-rule="evenodd">
        <g id="fitstar.yoga" transform="translate(-829.000000, -984.000000)" fill="#56C4CC">
            <g id="Features" transform="translate(0.000000, 737.000000)">
                <g id="feature-1" transform="translate(829.000000, 243.000000)">
                    <path d="M13.7294395,7.56005142 L13.7294395,11.1190091 C13.7294395,11.6789926 13.2711717,12.1361667 12.7122819,12.1361667 C12.1533921,12.1361667 11.6951244,11.6789926 11.6951244,11.1190091 L11.6951244,7.56005142 C11.6951244,7.00116163 12.1533921,6.54289387 12.7122819,6.54289387 C13.2711717,6.54289387 13.7294395,7.00116163 13.7294395,7.56005142 L13.7294395,7.56005142 Z M9.15332421,7.56005142 L9.15332421,12.1361667 C9.15332421,12.6961502 8.69505646,13.1533242 8.13616667,13.1533242 C7.57618316,13.1533242 7.11900912,12.6961502 7.11900912,12.1361667 L7.11900912,7.56005142 C7.11900912,7.00116163 7.57618316,6.54289387 8.13616667,6.54289387 C8.69505646,6.54289387 9.15332421,7.00116163 9.15332421,7.56005142 L9.15332421,7.56005142 Z M4.57611525,7.56005142 L4.57611525,11.1190091 C4.57611525,11.6789926 4.11894121,12.1361667 3.56005142,12.1361667 C3.00006791,12.1361667 2.54289387,11.6789926 2.54289387,11.1190091 L2.54289387,7.56005142 C2.54289387,7.00116163 3.00006791,6.54289387 3.56005142,6.54289387 C4.11894121,6.54289387 4.57611525,7.00116163 4.57611525,7.56005142 L4.57611525,7.56005142 Z M8.13616667,16.7133756 C8.31444267,16.7133756 8.46100085,16.8249348 8.51240559,16.9824302 L9.43878456,19.2551758 L11.8132459,19.2551758 C12.0265209,19.2551758 12.2037031,19.4848565 12.2037031,19.6926629 C12.2037031,19.8195342 12.1424549,19.9321871 12.0462078,19.9978102 L10.0479854,21.3551139 C10.0479854,21.3551139 10.688904,23.7711366 10.7096846,23.8422282 C10.723903,23.8772272 10.7293716,23.9187885 10.7293716,23.959256 C10.7293716,24.172531 10.5565641,24.3398698 10.3378206,24.3398698 C10.2415734,24.3398698 10.1497011,24.3048708 10.0840781,24.2490912 L8.13616667,22.7288235 L6.18825528,24.2490912 C6.12263221,24.3048708 6.03075991,24.3398698 5.93451275,24.3398698 C5.71576919,24.3398698 5.54296178,24.172531 5.54296178,23.959256 C5.54296178,23.9187885 5.54733665,23.8772272 5.5626487,23.8422282 C5.58342934,23.7711366 6.23419142,21.3660511 6.23419142,21.3660511 L4.22612555,19.9978102 C4.12878467,19.9321871 4.06863019,19.8195342 4.06863019,19.6926629 C4.06863019,19.4848565 4.24581247,19.2551758 4.46018116,19.2551758 L6.83464249,19.2551758 L7.75992775,16.9824302 C7.81023876,16.8249348 7.95789067,16.7133756 8.13616667,16.7133756 L8.13616667,16.7133756 Z M2.0343151,4 C0.909973204,4 0,4.91106692 0,6.0343151 L0,11.1244777 C0,11.836488 0.295303804,12.4828752 0.767789891,12.9444241 L2.98038099,15.1570152 C1.46448813,16.5504117 0.508578774,18.5541027 0.508578774,20.7809121 C0.508578774,24.9917256 3.92535316,28.4085 8.13616667,28.4085 C12.3458865,28.4085 15.7637546,24.9917256 15.7637546,20.7809121 C15.7637546,18.5541027 14.8078452,16.5504117 13.2930461,15.1570152 L15.5045434,12.9444241 C15.9770295,12.4828752 16.2723333,11.836488 16.2723333,11.1244777 L16.2723333,6.0343151 C16.2723333,4.91106692 15.3623601,4.00109372 14.2380182,4.00109372 L2.0343151,4.00109372 L2.0343151,4 Z" id="Fill-1"></path>
                </g>
            </g>
        </g>
    </g>
</svg>