<?xml version="1.0" encoding="UTF-8" standalone="no"?>
<svg width="142px" height="30px" viewBox="0 0 142 30" version="1.1" xmlns="http://www.w3.org/2000/svg" xmlns:xlink="http://www.w3.org/1999/xlink">
    <!-- Generator: Sketch 3.6.1 (26313) - http://www.bohemiancoding.com/sketch -->
    <title>Group</title>
    <desc>Created with Sketch.</desc>
    <defs></defs>
    <g id="Page-1" stroke="none" stroke-width="1" fill="none" fill-rule="evenodd">
        <g id="FitStar.RevisedFooter" transform="translate(-197.000000, -1601.000000)" fill="#FFFFFF">
            <g id="Footer" transform="translate(-18.000000, 1316.000000)">
                <g id="REVISIONS" transform="translate(14.000000, 175.000000)">
                    <g id="PT-logo" transform="translate(201.024390, 110.000000)">
                        <g id="Layer_1">
                            <g id="Group">
                                <path d="M46.3170177,16.7708136 C44.3937716,16.6201017 42.4477808,16.5337627 42.4477808,15.2839322 C42.4477808,14.0768136 43.7605757,13.5593898 45.2312635,13.5593898 C47.6746928,13.5593898 49.5299079,14.443322 50.4123815,15.068339 L52.2675966,12.9125085 C51.0012049,12.093661 48.3983597,11.0155932 45.3212268,11.0155932 C42.5385565,11.0155932 39.2121459,12.0718983 39.2121459,15.4775593 C39.2121459,19.0553898 43.0135549,19.4006441 46.2494944,19.5943729 C48.4666953,19.7667458 49.9829739,20.0689831 49.9829739,21.4266102 C49.9829739,22.7415254 48.4891354,23.4312203 46.6114802,23.4312203 C43.6242091,23.4312203 41.5203256,22.0085085 40.2758662,21.0602034 L38.4431927,23.1723051 C40.1626505,24.5088814 42.7423448,25.9530508 46.5662954,25.9530508 C50.186153,25.9530508 53.2184057,24.5951186 53.2184057,21.124678 C53.2184057,17.2448136 49.0097247,16.9430847 46.3170177,16.7708136 L46.3170177,16.7708136 Z" id="Shape"></path>
                                <path d="M55.3159939,14.1197288 L60.6783586,14.1197288 L60.6783586,25.5217627 L63.9137904,25.5217627 L63.9137904,14.1197288 L67.9517848,14.1197288 L69.2542228,11.4469831 L55.3159939,11.4469831 L55.3159939,14.1197288 Z" id="Shape"></path>
                                <path d="M23.0029007,14.1197288 L28.3652654,14.1197288 L28.3652654,25.5217627 L31.6006972,25.5217627 L31.6006972,14.1197288 L35.6388946,14.1197288 L36.9405203,11.4469831 L23.0029007,11.4469831 L23.0029007,14.1197288 Z" id="Shape"></path>
                                <path d="M0,25.521661 L3.2359395,25.521661 L3.2359395,19.6160339 L8.97409924,19.6160339 L10.2653679,16.9650508 L3.2359395,16.9650508 L3.2359395,14.1196271 L11.6512708,14.1196271 L12.9534042,11.4469831 L0,11.4469831 L0,25.521661 Z" id="Shape"></path>
                                <path d="M76.3632576,11.4469831 L69.5074605,25.5217627 L72.9235298,25.5217627 L74.2587648,22.5473898 L74.2741987,22.5473898 L75.3674668,20.1116949 L77.6078185,15.1331186 L77.7435758,15.1331186 L79.9833183,20.1116949 L77.2141526,20.1116949 L76.1206815,22.5473898 L81.092528,22.5473898 L82.4494923,25.5217627 L86.0023343,25.5217627 L79.145928,11.4469831 L76.3632576,11.4469831 Z" id="Shape"></path>
                                <rect id="Rectangle-path" x="15.9816968" y="11.4468814" width="3.23583796" height="14.0747797"></rect>
                                <path d="M103.377346,15.8874915 C103.377346,14.7666102 102.92489,13.7531186 102.155327,12.9772881 C101.204721,12.0291864 99.825012,11.4469831 97.7204177,11.4469831 L89.5295886,11.4469831 L89.5295886,14.0551525 L89.5295886,25.5217627 L92.7656296,25.5217627 L92.7656296,20.3488475 L97.1547451,20.3488475 L100.141407,25.5217627 L103.852345,25.5217627 L100.390685,19.8531864 C102.200309,19.0989153 103.377346,17.6974576 103.377346,15.8874915 L103.377346,15.8874915 Z M98.0599634,17.7408814 L92.7656296,17.7408814 L92.7656296,14.0550508 L97.833735,14.0550508 C98.4219491,14.0550508 99.0781943,14.1196271 99.5986821,14.6584068 C99.9382278,14.9821017 100.118865,15.4127797 100.118865,15.8873898 C100.118865,16.9649492 99.191207,17.7408814 98.0599634,17.7408814 L98.0599634,17.7408814 Z" id="Shape"></path>
                                <path d="M141.902786,11.4473898 L129.885264,11.4473898 L126.172093,0 L122.458312,11.4467797 L120.162621,18.5213898 L116.448739,29.9682712 L126.171077,22.8944746 L135.893111,29.9694915 L132.180447,18.5223051 L141.902786,11.4473898 Z" id="Shape"></path>
                                <path d="M119.926442,11.4467797 L110.439978,11.4467797 L118.115092,17.0313559 L119.926442,11.4467797 Z" id="Shape"></path>
                                <path d="M105.060352,24.7600678 L105.395633,24.7600678 L105.395633,25.5215593 L105.510473,25.5215593 L105.510473,24.7600678 L105.844434,24.7600678 L105.844434,24.6582712 L105.060352,24.6582712 L105.060352,24.7600678 Z" id="Shape"></path>
                                <path d="M106.491236,25.2016271 L106.488698,25.2016271 L106.166617,24.6583729 L106.045075,24.6583729 L106.045075,25.5215593 L106.154635,25.5215593 L106.154635,24.8670508 L106.161235,24.8670508 L106.472756,25.392 L106.496618,25.392 L106.808037,24.8670508 L106.814637,24.8670508 L106.814637,25.5215593 L106.929478,25.5215593 L106.929478,24.6583729 L106.813419,24.6583729 L106.491236,25.2016271 Z" id="Shape"></path>
                                <path d="M1.15520674,5.33715254 L2.77840574,5.33715254 C3.43810321,5.33715254 3.86801842,5.15898305 4.171924,4.86955932 C4.45359259,4.59488136 4.63148854,4.22369492 4.63148854,3.80054237 C4.63148854,3.42935593 4.49065424,3.08786441 4.23863498,2.80576271 C3.92000628,2.46427119 3.46034021,2.27125424 2.77840574,2.27125424 L0.0953449178,2.27125424 L0.0953449178,7.11884746 L1.15520674,7.11884746 L1.15520674,5.33715254 L1.15520674,5.33715254 Z M1.15520674,3.16952542 L2.81556893,3.16952542 C3.00828954,3.16952542 3.22314561,3.19922034 3.38631843,3.3699661 C3.49740186,3.48874576 3.56421438,3.63722034 3.56421438,3.8079661 C3.56421438,3.97128814 3.48998953,4.13461017 3.37139223,4.25338983 C3.20842249,4.40918644 3.00087721,4.43888136 2.81556893,4.43888136 L1.15520674,4.43888136 L1.15520674,3.16952542 L1.15520674,3.16952542 Z" id="Shape"></path>
                                <path d="M11.2950728,6.20572881 L8.15234586,6.20572881 L8.15234586,5.04772881 L9.93871768,5.04772881 L9.93871768,4.13461017 L8.15234586,4.13461017 L8.15234586,3.19179661 L11.1247922,3.19179661 L11.1247922,2.27115254 L7.09248404,2.27115254 L7.09248404,7.11874576 L11.2950728,7.11874576 L11.2950728,6.20572881 Z" id="Shape"></path>
                                <path d="M17.321298,7.11884746 L18.5369203,7.11884746 L17.4029352,5.16650847 C17.9958202,4.90667797 18.3812614,4.42413559 18.3812614,3.80054237 C18.3812614,3.41450847 18.2330148,3.06559322 17.9809955,2.79833898 C17.6697791,2.47169492 17.2175254,2.27125424 16.5281786,2.27125424 L13.8451178,2.27125424 L13.8451178,7.11884746 L14.9049796,7.11884746 L14.9049796,5.33715254 L16.3429718,5.33715254 L17.321298,7.11884746 L17.321298,7.11884746 Z M14.9050811,3.16952542 L16.5654433,3.16952542 C16.7581639,3.16952542 16.97302,3.19179661 17.1435036,3.37738983 C17.2547901,3.48874576 17.3140888,3.63722034 17.3140888,3.80054237 C17.3140888,4.17162712 17.0100816,4.43888136 16.6395666,4.43888136 L14.9050811,4.43888136 L14.9050811,3.16952542 L14.9050811,3.16952542 Z" id="Shape"></path>
                                <path d="M23.2883262,6.39864407 C22.31,6.39864407 21.6206532,5.90877966 21.212975,5.58213559 L20.6125762,6.30955932 C21.1759133,6.7699322 22.0209191,7.26722034 23.2736031,7.26722034 C24.459576,7.26722034 25.4527269,6.79962712 25.4527269,5.60440678 C25.4527269,4.26813559 24.0741348,4.16420339 23.1920674,4.10481356 C22.5620193,4.05284746 21.9245588,4.02315254 21.9245588,3.59257627 C21.9245588,3.17694915 22.354474,2.99877966 22.8362755,2.99877966 C23.6367057,2.99877966 24.2445169,3.30305085 24.5335978,3.51833898 L25.141409,2.7759661 C24.7263184,2.4939661 23.8739003,2.12267797 22.8659248,2.12267797 C21.9542081,2.12267797 20.8645954,2.48654237 20.8645954,3.65938983 C20.8645954,4.89172881 22.1098671,5.01050847 23.1697289,5.07732203 C23.8962389,5.13671186 24.3927635,5.24064407 24.3927635,5.70833898 C24.392662,6.16108475 23.9035497,6.39864407 23.2883262,6.39864407 L23.2883262,6.39864407 Z" id="Shape"></path>
                                <path d="M30.3226285,7.26732203 C31.8569811,7.26732203 33.0873265,6.1240678 33.0873265,4.68386441 C33.0873265,3.27345763 31.8569811,2.12277966 30.3226285,2.12277966 C28.7882759,2.12277966 27.5875798,3.27345763 27.5875798,4.68386441 C27.5875798,6.1240678 28.7882759,7.26732203 30.3226285,7.26732203 L30.3226285,7.26732203 Z M30.3226285,3.04322034 C31.2491699,3.04322034 31.9755784,3.78559322 31.9755784,4.68386441 C31.9755784,5.59698305 31.2491699,6.35420339 30.3226285,6.35420339 C29.4109118,6.35420339 28.699328,5.59698305 28.699328,4.68386441 C28.699328,3.78559322 29.4109118,3.04322034 30.3226285,3.04322034 L30.3226285,3.04322034 Z" id="Shape"></path>
                                <path d="M36.7417073,4.11976271 L36.7490181,4.11976271 L39.2099121,7.11884746 L40.1289396,7.11884746 L40.1289396,2.27125424 L39.0615639,2.27125424 L39.0615639,5.27776271 L39.0542531,5.27776271 L36.5859468,2.27125424 L35.6742301,2.27125424 L35.6742301,7.11884746 L36.7417073,7.11884746 L36.7417073,4.11976271 Z" id="Shape"></path>
                                <path d="M44.020515,6.09447458 L46.2589375,6.09447458 L46.7036774,7.11884746 L47.8674134,7.11884746 L45.621477,2.27125424 L44.7098618,2.27125424 L42.4639255,7.11884746 L43.5831875,7.11884746 L44.020515,6.09447458 L44.020515,6.09447458 Z M45.11754,3.54061017 L45.162014,3.54061017 L45.8958348,5.25549153 L44.3837193,5.25549153 L45.11754,3.54061017 L45.11754,3.54061017 Z" id="Shape"></path>
                                <path d="M51.2622611,2.27125424 L50.2023992,2.27125424 L50.2023992,7.11884746 L54.1084947,7.11884746 L54.1084947,6.20572881 L51.2622611,6.20572881 L51.2622611,2.27125424 Z" id="Shape"></path>
                                <path d="M60.4609641,7.11884746 L61.5208259,7.11884746 L61.5208259,3.19179661 L63.2701361,3.19179661 L63.2701361,2.27125424 L58.7042416,2.27125424 L58.7042416,3.19179661 L60.4609641,3.19179661 L60.4609641,7.11884746 Z" id="Shape"></path>
                                <path d="M66.768858,5.33715254 L68.2067487,5.33715254 L69.1851764,7.11884746 L70.4007987,7.11884746 L69.266712,5.16650847 C69.859597,4.90667797 70.2450382,4.42413559 70.2450382,3.80054237 C70.2450382,3.41450847 70.0967916,3.06559322 69.8448739,2.79833898 C69.533556,2.47169492 69.0814037,2.27125424 68.3920569,2.27125424 L65.7088946,2.27125424 L65.7088946,7.11884746 L66.768858,7.11884746 L66.768858,5.33715254 L66.768858,5.33715254 Z M66.768858,3.16952542 L68.4292201,3.16952542 C68.6218392,3.16952542 68.8367968,3.19179661 69.0072804,3.37738983 C69.1184654,3.48874576 69.1777641,3.63722034 69.1777641,3.80054237 C69.1777641,4.17162712 68.8737569,4.43888136 68.5032419,4.43888136 L66.768858,4.43888136 L66.768858,3.16952542 L66.768858,3.16952542 Z" id="Shape"></path>
                                <path d="M73.854945,6.09447458 L76.0934691,6.09447458 L76.5382089,7.11884746 L77.7020465,7.11884746 L75.4560086,2.27125424 L74.5442918,2.27125424 L72.298457,7.11884746 L73.4176175,7.11884746 L73.854945,6.09447458 L73.854945,6.09447458 Z M74.9521731,3.54061017 L74.9965456,3.54061017 L75.7303664,5.25549153 L74.2182508,5.25549153 L74.9521731,3.54061017 L74.9521731,3.54061017 Z" id="Shape"></path>
                                <rect id="Rectangle-path" x="80.0368293" y="2.27125424" width="1.05986182" height="4.84759322"></rect>
                                <path d="M87.4935329,5.27776271 L87.4861206,5.27776271 L85.0177128,2.27125424 L84.1061991,2.27125424 L84.1061991,7.11884746 L85.1735748,7.11884746 L85.1735748,4.11976271 L85.1809871,4.11976271 L87.6417795,7.11884746 L88.5609086,7.11884746 L88.5609086,2.27125424 L87.4935329,2.27125424 L87.4935329,5.27776271 Z" id="Shape"></path>
                                <path d="M95.7729038,6.20572881 L92.6302784,6.20572881 L92.6302784,5.04772881 L94.4165487,5.04772881 L94.4165487,4.13461017 L92.6302784,4.13461017 L92.6302784,3.19179661 L95.6025217,3.19179661 L95.6025217,2.27115254 L91.5703151,2.27115254 L91.5703151,7.11874576 L95.7729038,7.11874576 L95.7729038,6.20572881 Z" id="Shape"></path>
                                <path d="M99.3828106,5.33715254 L100.820803,5.33715254 L101.799231,7.11884746 L103.014853,7.11884746 L101.880766,5.16650847 C102.473753,4.90667797 102.859194,4.42413559 102.859194,3.80054237 C102.859194,3.41450847 102.710947,3.06559322 102.45903,2.79833898 C102.147712,2.47169492 101.695356,2.27125424 101.006213,2.27125424 L98.3229488,2.27125424 L98.3229488,7.11884746 L99.3828106,7.11884746 L99.3828106,5.33715254 L99.3828106,5.33715254 Z M99.3828106,3.16952542 L101.043173,3.16952542 C101.235893,3.16952542 101.450953,3.19179661 101.621335,3.37738983 C101.73252,3.48874576 101.791818,3.63722034 101.791818,3.80054237 C101.791818,4.17162712 101.487913,4.43888136 101.117296,4.43888136 L99.3828106,4.43888136 L99.3828106,3.16952542 L99.3828106,3.16952542 Z" id="Shape"></path>
                            </g>
                        </g>
                    </g>
                </g>
            </g>
        </g>
    </g>
</svg>