<?xml version="1.0" encoding="UTF-8" standalone="no"?>
<svg width="164px" height="47px" viewBox="0 0 164 47" version="1.1" xmlns="http://www.w3.org/2000/svg" xmlns:xlink="http://www.w3.org/1999/xlink">
    <!-- Generator: Sketch 39.1 (31720) - http://www.bohemiancoding.com/sketch -->
    <title>fitstar_updated_logo_0727</title>
    <desc>Created with Sketch.</desc>
    <defs>
        <path d="M19.0418755,0.00601829268 C19.363893,0.0103275522 19.684574,0.200204754 19.8142081,0.578329268 L23.5558377,11.9944573 C23.7695873,12.6450061 24.2523316,12.9404756 24.7648677,12.9404756 L36.9043386,12.9404756 C37.6881834,12.9404756 38.0184974,13.9446707 37.3801411,14.4077927 L27.5488183,21.5793049 C27.2101164,21.8309268 26.9619471,22.3459207 27.1253686,22.8749573 L30.8901376,34.4045732 C31.133679,35.1482622 30.2937213,35.7733049 29.6356966,35.3147683 L19.7546243,28.2770915 C19.2955979,27.9632805 18.7483527,27.965 18.3182504,28.2770915 L8.45626808,35.2984329 C7.78349206,35.7761707 6.93630335,35.1528476 7.18158025,34.3945427 L18.2505679,0.578329268 C18.3753976,0.202025174 18.6958686,0.0103483978 19.0194396,0.00601829268 L19.0418756,0.00601829268 L19.0418755,0.00601829268 L19.0418755,0.00601829268 Z M0.0173544972,13.9175871 C0.0586207464,14.1086697 0.175294337,14.2992877 0.389319224,14.4596646 L8.26565785,20.154689 C8.67638095,20.4407012 9.31444797,20.2893841 9.50303351,19.7451585 L11.4134744,14.0051402 C11.6098695,13.3935671 11.1048536,12.9404756 10.6403316,12.9404756 L0.808141093,12.9404756 C0.413201091,12.9404756 0.0937658063,13.2329279 0.0173544969,13.5905204 L0.0173544974,13.9175872 L0.0173544972,13.9175871 L0.0173544972,13.9175871 Z" id="path-1"></path>
        <linearGradient x1="50%" y1="0%" x2="50%" y2="100%" id="linearGradient-3">
            <stop stop-color="#FFFFFF" offset="0%"></stop>
            <stop stop-color="#000000" offset="100%"></stop>
        </linearGradient>
        <linearGradient x1="100%" y1="0%" x2="100%" y2="100%" id="linearGradient-4">
            <stop stop-color="#02D8DD" offset="0%"></stop>
            <stop stop-color="#01B0B9" offset="100%"></stop>
        </linearGradient>
        <polygon id="path-5" points="0.0173544974 35.9964393 37.7170377 35.9964393 37.7170377 0.00601829268 0.0173544974 0.00601829268"></polygon>
    </defs>
    <g id="Design" stroke="none" stroke-width="1" fill="none" fill-rule="evenodd">
        <g id="Fitstar.Home.v2" transform="translate(-51.000000, -8141.000000)">
            <g id="Group-16" transform="translate(0.000000, 8085.000000)">
                <g id="fitstar_updated_logo_0727" transform="translate(51.000000, 56.000000)">
                    <path d="M68.4235767,12.9513659 L66.7043245,12.9513659 C66.3366984,12.9513659 66.0355979,13.2494146 66.0355979,13.6139512 L66.0355979,30.9601037 C66.0355979,31.3243537 66.3366984,31.622689 66.7043245,31.622689 L68.4235767,31.622689 C68.7912028,31.622689 69.0923034,31.3243537 69.0923034,30.9601037 L69.0923034,13.6139512 C69.0923034,13.2494146 68.7912028,12.9513659 68.4235767,12.9513659" id="Fill-1" fill="#FFFFFF"></path>
                    <path d="M87.481418,12.9499329 L73.8468571,12.9499329 C73.479231,12.9499329 73.1784198,13.2479817 73.1784198,13.6125183 L73.1784198,15.3159817 C73.1784198,15.6802317 73.479231,15.9782805 73.8468571,15.9782805 L79.1359295,15.9782805 L79.1359295,30.9586707 C79.1359295,31.3229207 79.4367407,31.6209695 79.8046561,31.6209695 L81.5239083,31.6209695 C81.8915344,31.6209695 82.1923457,31.3229207 82.1923457,30.9586707 L82.1923457,15.9782805 L87.481418,15.9782805 C87.8490441,15.9782805 88.1501446,15.6802317 88.1501446,15.3159817 L88.1501446,13.6125183 C88.1501446,13.2479817 87.8490441,12.9499329 87.481418,12.9499329" id="Fill-2" fill="#FFFFFF"></path>
                    <path d="M121.023323,12.9513659 L107.388762,12.9513659 C107.021136,12.9513659 106.720325,13.2494146 106.720325,13.6139512 L106.720325,15.3174146 C106.720325,15.6816646 107.021136,15.9797134 107.388762,15.9797134 L112.677834,15.9797134 L112.677834,30.9601037 C112.677834,31.3243537 112.978646,31.622689 113.346561,31.622689 L115.065813,31.622689 C115.433439,31.622689 115.73425,31.3243537 115.73425,30.9601037 L115.73425,15.9797134 L121.023323,15.9797134 C121.390949,15.9797134 121.692049,15.6816646 121.692049,15.3174146 L121.692049,13.6139512 C121.692049,13.2494146 121.390949,12.9513659 121.023323,12.9513659" id="Fill-3" fill="#FFFFFF"></path>
                    <path d="M127.521425,23.9777378 L130.485573,16.8374634 L133.449721,23.9777378 L127.521425,23.9777378 L127.521425,23.9777378 Z M132.431591,13.5640854 C132.291598,13.227061 131.876247,12.9513659 131.508621,12.9513659 L129.462526,12.9513659 C129.09461,12.9513659 128.679259,13.227061 128.539556,13.5640854 L121.297524,31.0099695 C121.157531,31.3467073 121.344092,31.622689 121.711718,31.622689 L123.679429,31.622689 C124.047055,31.622689 124.462406,31.3467073 124.602399,31.0099695 L126.264092,27.0066585 L134.707055,27.0066585 L136.368748,31.0099695 C136.508451,31.3467073 136.923802,31.622689 137.291718,31.622689 L139.259139,31.622689 C139.627055,31.622689 139.813326,31.3467073 139.673623,31.0099695 L132.431591,13.5640854 L132.431591,13.5640854 Z" id="Fill-4" fill="#FFFFFF"></path>
                    <path d="M146.133256,21.5775854 L146.133256,15.9802866 L151.791979,15.9802866 C153.349256,15.9802866 154.616423,17.2355305 154.616423,18.7787927 C154.616423,20.3223415 153.349256,21.5775854 151.791979,21.5775854 L146.133256,21.5775854 L146.133256,21.5775854 Z M157.890349,31.0647073 L153.546229,24.3414146 C155.935076,23.6000183 157.673418,21.3870061 157.673418,18.7787927 C157.673418,15.5655976 155.034956,12.9513659 151.791979,12.9513659 L143.745566,12.9513659 C143.377651,12.9513659 143.07684,13.2494146 143.07684,13.6139512 L143.07684,30.9601037 C143.07684,31.3243537 143.377651,31.622689 143.745566,31.622689 L145.464818,31.622689 C145.832444,31.622689 146.133256,31.3243537 146.133256,30.9601037 L146.133256,24.6062195 L150.088056,24.6062195 L154.261235,31.0647073 C154.459365,31.3713537 154.92273,31.622689 155.290356,31.622689 L157.582307,31.622689 C157.949933,31.622689 158.088769,31.3713537 157.890349,31.0647073 L157.890349,31.0647073 Z" id="Fill-5" fill="#FFFFFF"></path>
                    <path d="M61.0704762,12.9513659 L48.7389489,12.9513659 C48.3713228,12.9513659 48.0702222,13.2494146 48.0702222,13.6139512 L48.0702222,30.9601037 C48.0702222,31.3243537 48.3713228,31.622689 48.7389489,31.622689 L50.4587795,31.622689 C50.8264056,31.622689 51.1272169,31.3243537 51.1272169,30.9601037 L51.1272169,23.9722927 L58.9671111,23.9722927 C59.3347372,23.9722927 59.6358377,23.6739573 59.6358377,23.3097073 L59.6358377,21.6056707 C59.6358377,21.2414207 59.3347372,20.943372 58.9671111,20.943372 L51.1272169,20.943372 L51.1272169,15.9802866 L61.0704762,15.9802866 C61.4381023,15.9802866 61.7392028,15.6822378 61.7392028,15.3177012 L61.7392028,13.6139512 C61.7392028,13.2494146 61.4381023,12.9513659 61.0704762,12.9513659" id="Fill-6" fill="#FFFFFF"></path>
                    <path d="M103.02266,22.6219024 C102.730526,22.3330244 102.37794,22.0599085 101.974737,21.8100061 C101.393362,21.4351524 100.739965,21.1434085 100.032769,20.9425122 C99.3342504,20.7453415 98.5428854,20.5427256 97.6800776,20.3412561 C96.2760988,20.0426341 95.2981728,19.6654878 94.7723316,19.219561 C94.2516966,18.8020061 94.0003457,18.2414451 94.0249312,17.5553598 C94.0741023,17.1627378 94.1990547,16.8520793 94.3968959,16.6322683 C94.5947372,16.4107378 94.7844797,16.235061 94.9600494,16.1101098 C95.5836543,15.6902622 96.4071252,15.4773293 97.4079012,15.4773293 C99.0013333,15.4773293 100.298293,15.9742683 101.263203,16.9541037 L101.404353,17.0973963 C101.534222,17.2550183 101.756649,17.3894268 102.084649,17.138378 L103.577425,15.9946159 C103.735062,15.8736768 103.828198,15.7303841 103.846131,15.5802134 C103.862617,15.4437988 103.816049,15.3027988 103.713369,15.1752683 C103.710187,15.1706829 103.637587,15.0617805 103.408508,14.8299329 C102.77478,14.1876951 102.049072,13.6661098 101.250476,13.2792195 C100.062272,12.7289756 98.7696508,12.4498415 97.4079012,12.4498415 C96.6029418,12.4498415 95.8407901,12.5515793 95.1434286,12.752189 C94.4475132,12.953372 93.8134956,13.2325061 93.2587302,13.5821402 C92.5998377,14.009439 92.0673439,14.5562439 91.6762892,15.2070793 C91.2834991,15.8593476 91.0587584,16.5589024 91.0084303,17.2859695 C90.9323598,18.1127683 91.0477672,18.9137744 91.3517601,19.6677805 C91.5050582,20.0217134 91.710709,20.3647561 91.96206,20.6877378 C92.2116755,21.0107195 92.5067019,21.3159329 92.8393298,21.5944939 C93.7478377,22.3204146 95.1552875,22.8915793 97.0226314,23.2916524 C97.7315626,23.4421098 98.3690511,23.6000183 98.9165855,23.7605061 C99.4684586,23.9227134 99.9506243,24.1302012 100.350067,24.3775244 C101.096021,24.8455183 101.486787,25.4817378 101.511661,26.2692744 C101.561411,27.1806159 101.19581,27.8924939 100.42527,28.3851341 C99.9749206,28.6828963 99.4878377,28.8774878 98.9767478,28.9631768 C98.4653686,29.0500122 98.001425,29.0938598 97.597933,29.0938598 C95.7331922,29.0938598 94.1252981,28.357622 92.8185044,26.9060671 L92.6854533,26.758189 C92.5009171,26.5300671 92.2758871,26.5160244 92.0161481,26.7157744 L90.4039153,27.9635671 C90.2835908,28.0564207 90.2159083,28.1699085 90.2028924,28.3011646 C90.1866949,28.4587866 90.2532205,28.6327439 90.390321,28.7912256 C92.339231,31.0007988 94.7642328,32.121061 97.597933,32.121061 C99.3649101,32.121061 100.875619,31.7278659 102.089566,30.9517927 C102.898286,30.4001159 103.533171,29.6885244 103.976,28.8367927 C104.41825,27.985061 104.617249,27.0697073 104.566631,26.1176707 C104.541178,25.2152134 104.284621,24.3631951 103.803612,23.5845427 C103.577714,23.2357683 103.314794,22.9119268 103.02266,22.6219024" id="Fill-7" fill="#FFFFFF"></path>
                    <polyline id="Fill-8" fill="#FFFFFF" points="163.741707 29.7822378 163.068353 30.9391829 162.394998 29.7822378 162.231866 29.7822378 162.231866 31.622689 162.411196 31.622689 162.411196 30.1957805 163.068353 31.3246402 163.72551 30.1957805 163.72551 31.622689 163.90484 31.622689 163.90484 29.7822378 163.741707 29.7822378"></polyline>
                    <polyline id="Fill-9" fill="#FFFFFF" points="160.396628 29.9587744 161.016473 29.9587744 161.016473 31.622689 161.195513 31.622689 161.195513 29.9587744 161.815358 29.9587744 161.815358 29.7822378 160.396628 29.7822378 160.396628 29.9587744"></polyline>
                    <g id="Group-12">
                        <mask id="mask-2" fill="white">
                            <use xlink:href="#path-1"></use>
                        </mask>
                        <g id="Clip-11"></g>
                        <g id="Fill-10" mask="url(#mask-2)">
                            <use fill="url(#linearGradient-3)" xlink:href="#path-5"></use>
                            <use fill="url(#linearGradient-4)" xlink:href="#path-5"></use>
                        </g>
                    </g>
                    <path d="M50.7136014,43.9742317 C50.9730511,43.9742317 51.2119647,43.9272317 51.4297637,43.8335183 C51.6472734,43.7395183 51.8349912,43.609122 51.9929171,43.4423293 C52.150843,43.27525 52.2737707,43.0752134 52.3614109,42.8422195 C52.4490511,42.6092256 52.4930159,42.353878 52.4930159,42.0753171 C52.4930159,41.8042073 52.4490511,41.5520122 52.3614109,41.3187317 C52.2737707,41.0860244 52.150843,40.8845549 51.9929171,40.71375 C51.8349912,40.5435183 51.6472734,40.4111159 51.4297637,40.3174024 C51.2119647,40.2234024 50.9730511,40.1764024 50.7136014,40.1764024 C50.4466314,40.1764024 50.2028007,40.2234024 49.9818201,40.3174024 C49.7605503,40.4111159 49.571097,40.5435183 49.4131711,40.71375 C49.2549559,40.8845549 49.1302928,41.0860244 49.0391817,41.3187317 C48.9477813,41.5520122 48.9023704,41.8042073 48.9023704,42.0753171 C48.9023704,42.353878 48.9477813,42.6092256 49.0391817,42.8422195 C49.1302928,43.0752134 49.2549559,43.27525 49.4131711,43.4423293 C49.571097,43.609122 49.7605503,43.7395183 49.9818201,43.8335183 C50.2028007,43.9272317 50.4466314,43.9742317 50.7136014,43.9742317 L50.7136014,43.9742317 Z M52.5982998,40.1454512 C52.8369242,40.3956402 53.0177002,40.6859512 53.1406279,41.0163841 C53.2632663,41.3468171 53.3248748,41.6998902 53.3248748,42.0753171 C53.3248748,42.4510305 53.2632663,42.8041037 53.1406279,43.13425 C53.0177002,43.4649695 52.8369242,43.7549939 52.5982998,44.0054695 C52.3524444,44.2631098 52.0684092,44.4591341 51.7453263,44.5949756 C51.4222434,44.7308171 51.0786243,44.7984512 50.7136014,44.7984512 C50.3624621,44.7984512 50.027231,44.7184939 49.707619,44.5585793 C49.3882963,44.3986646 49.1375238,44.2003476 48.9550123,43.9639146 L48.923485,43.9639146 L48.923485,44.6107378 L48.0916261,44.6107378 L48.0916261,36.8588902 L48.923485,36.8588902 L48.923485,40.1870061 L48.9550123,40.1870061 C49.1375238,39.9574512 49.3882963,39.7611402 49.707619,39.5975 C50.027231,39.4341463 50.3624621,39.3521829 50.7136014,39.3521829 C51.0786243,39.3521829 51.4222434,39.4201037 51.7453263,39.5556585 C52.0684092,39.6915 52.3524444,39.887811 52.5982998,40.1454512 L52.5982998,40.1454512 Z" id="Fill-13" fill-opacity="0.600000024" fill="#FFFFFF"></path>
                    <polyline id="Fill-14" fill-opacity="0.600000024" fill="#FFFFFF" points="55.8204515 44.5273415 53.6829559 39.5295793 54.5882822 39.5295793 56.2734039 43.4735671 57.9582363 39.5295793 58.8638519 39.5295793 55.6625256 47 54.7569101 47 55.8204515 44.5273415"></polyline>
                    <polyline id="Fill-15" fill-opacity="0.600000024" fill="#FFFFFF" points="61.854321 44.6107378 61.854321 36.8588902 66.5082187 36.8588902 66.5082187 37.7246646 62.7281199 37.7246646 62.7281199 40.2288476 65.8976296 40.2288476 65.8976296 41.094622 62.7281199 41.094622 62.7281199 44.6107378 61.854321 44.6107378"></polyline>
                    <path d="M67.5084162,44.6107378 L68.3402751,44.6107378 L68.3402751,39.5295793 L67.5084162,39.5295793 L67.5084162,44.6107378 Z M68.4982011,38.0376159 C68.4982011,38.1978171 68.4420882,38.333372 68.3298624,38.4445671 C68.2176367,38.5560488 68.0805362,38.6116463 67.9191393,38.6116463 C67.7577425,38.6116463 67.6226667,38.5560488 67.5139118,38.4445671 C67.4048677,38.333372 67.3504903,38.1978171 67.3504903,38.0376159 C67.3504903,37.8779878 67.4048677,37.7441524 67.5139118,37.6361098 C67.6226667,37.5283537 67.7577425,37.474189 67.9191393,37.474189 C68.0805362,37.474189 68.2176367,37.5283537 68.3298624,37.6361098 C68.4420882,37.7441524 68.4982011,37.8779878 68.4982011,38.0376159 L68.4982011,38.0376159 Z" id="Fill-16" fill-opacity="0.600000024" fill="#FFFFFF"></path>
                    <path d="M69.7618977,39.5295793 L70.5095873,39.5295793 L70.5095873,37.5472683 L71.3414462,37.5472683 L71.3414462,39.5295793 L72.6681975,39.5295793 L72.6681975,40.3537988 L71.3414462,40.3537988 L71.3414462,43.08725 C71.3414462,43.2961707 71.4062363,43.4649695 71.5363951,43.5933598 C71.6659753,43.7220366 71.8328677,43.7865183 72.0364938,43.7865183 L72.6681975,43.7865183 L72.6681975,44.6107378 L71.9627372,44.6107378 C71.5274286,44.6107378 71.1765785,44.4803415 70.9096085,44.2195488 C70.6429277,43.9584695 70.5095873,43.612561 70.5095873,43.18125 L70.5095873,40.3537988 L69.7618977,40.3537988 L69.7618977,39.5295793" id="Fill-17" fill-opacity="0.600000024" fill="#FFFFFF"></path>
                    <path d="M76.7641481,43.9742317 C77.0238871,43.9742317 77.2625115,43.9272317 77.4803104,43.8335183 C77.6978201,43.7395183 77.8855379,43.609122 78.0434638,43.4423293 C78.2013898,43.27525 78.3243175,43.0752134 78.4122469,42.8422195 C78.4995979,42.6092256 78.5438519,42.353878 78.5438519,42.0753171 C78.5438519,41.8042073 78.4995979,41.5520122 78.4122469,41.3187317 C78.3243175,41.0860244 78.2013898,40.8845549 78.0434638,40.71375 C77.8855379,40.5435183 77.6978201,40.4111159 77.4803104,40.3174024 C77.2625115,40.2234024 77.0238871,40.1764024 76.7641481,40.1764024 C76.4974674,40.1764024 76.2536367,40.2234024 76.0323668,40.3174024 C75.811097,40.4111159 75.6216437,40.5435183 75.4637178,40.71375 C75.3055026,40.8845549 75.1811287,41.0860244 75.0897284,41.3187317 C74.9986173,41.5520122 74.9532063,41.8042073 74.9532063,42.0753171 C74.9532063,42.353878 74.9986173,42.6092256 75.0897284,42.8422195 C75.1811287,43.0752134 75.3055026,43.27525 75.4637178,43.4423293 C75.6216437,43.609122 75.811097,43.7395183 76.0323668,43.8335183 C76.2536367,43.9272317 76.4974674,43.9742317 76.7641481,43.9742317 L76.7641481,43.9742317 Z M78.6488466,40.1454512 C78.8874709,40.3956402 79.0682469,40.6859512 79.1911746,41.0163841 C79.3141023,41.3468171 79.3757108,41.6998902 79.3757108,42.0753171 C79.3757108,42.4510305 79.3141023,42.8041037 79.1911746,43.13425 C79.0682469,43.4649695 78.8874709,43.7549939 78.6488466,44.0054695 C78.4029912,44.2631098 78.1189559,44.4591341 77.7961623,44.5949756 C77.4730794,44.7308171 77.1291711,44.7984512 76.7641481,44.7984512 C76.4132981,44.7984512 76.0777778,44.7184939 75.758455,44.5585793 C75.438843,44.3986646 75.1880705,44.2003476 75.0055591,43.9639146 L74.9740317,43.9639146 L74.9740317,44.6107378 L74.1421728,44.6107378 L74.1421728,36.8588902 L74.9740317,36.8588902 L74.9740317,40.1870061 L75.0055591,40.1870061 C75.1880705,39.9574512 75.438843,39.7611402 75.758455,39.5975 C76.0777778,39.4341463 76.4132981,39.3521829 76.7641481,39.3521829 C77.1291711,39.3521829 77.4730794,39.4201037 77.7961623,39.5556585 C78.1189559,39.6915 78.4029912,39.887811 78.6488466,40.1454512 L78.6488466,40.1454512 Z" id="Fill-18" fill-opacity="0.600000024" fill="#FFFFFF"></path>
                    <path d="M80.5445362,44.6107378 L81.3763951,44.6107378 L81.3763951,39.5295793 L80.5445362,39.5295793 L80.5445362,44.6107378 Z M81.534321,38.0376159 C81.534321,38.1978171 81.4779189,38.333372 81.3659824,38.4445671 C81.2534674,38.5560488 81.1163668,38.6116463 80.9552593,38.6116463 C80.7935732,38.6116463 80.6584974,38.5560488 80.5497425,38.4445671 C80.4406984,38.333372 80.3866102,38.1978171 80.3866102,38.0376159 C80.3866102,37.8779878 80.4406984,37.7441524 80.5497425,37.6361098 C80.6584974,37.5283537 80.7935732,37.474189 80.9552593,37.474189 C81.1163668,37.474189 81.2534674,37.5283537 81.3659824,37.6361098 C81.4779189,37.7441524 81.534321,37.8779878 81.534321,38.0376159 L81.534321,38.0376159 Z" id="Fill-19" fill-opacity="0.600000024" fill="#FFFFFF"></path>
                    <path d="M82.5871605,39.5295793 L83.3348501,39.5295793 L83.3348501,37.5472683 L84.166709,37.5472683 L84.166709,39.5295793 L85.4934603,39.5295793 L85.4934603,40.3537988 L84.166709,40.3537988 L84.166709,43.08725 C84.166709,43.2961707 84.2314991,43.4649695 84.3616578,43.5933598 C84.4912381,43.7220366 84.6578413,43.7865183 84.8617566,43.7865183 L85.4934603,43.7865183 L85.4934603,44.6107378 L84.788,44.6107378 C84.3526914,44.6107378 84.0018413,44.4803415 83.7348713,44.2195488 C83.4681905,43.9584695 83.3348501,43.612561 83.3348501,43.18125 L83.3348501,40.3537988 L82.5871605,40.3537988 L82.5871605,39.5295793" id="Fill-20" fill-opacity="0.600000024" fill="#FFFFFF"></path>
                </g>
            </g>
        </g>
    </g>
</svg>