<?xml version="1.0" encoding="UTF-8" standalone="no"?>
<svg
   xmlns:dc="http://purl.org/dc/elements/1.1/"
   xmlns:cc="http://creativecommons.org/ns#"
   xmlns:rdf="http://www.w3.org/1999/02/22-rdf-syntax-ns#"
   xmlns:svg="http://www.w3.org/2000/svg"
   xmlns="http://www.w3.org/2000/svg"
   viewBox="0 0 708.33752 204.97501"
   height="204.97501"
   width="708.33752"
   xml:space="preserve"
   version="1.1"
   id="svg2"><metadata
     id="metadata8"><rdf:RDF><cc:Work
         rdf:about=""><dc:format>image/svg+xml</dc:format><dc:type
           rdf:resource="http://purl.org/dc/dcmitype/StillImage" /></cc:Work></rdf:RDF></metadata><defs
     id="defs6"><clipPath
       id="clipPath36"
       clipPathUnits="userSpaceOnUse"><path
         id="path38"
         d="m 952.445,887.016 339.905,250.244 c 22.07,16.16 10.65,51.2 -16.45,51.2 l -419.701,0 c -17.719,0 -34.406,10.31 -41.801,33.01 l -129.359,398.35 c -9.086,26.75 -45.351,26.5 -54.059,0 L 248.289,439.852 c -8.476,-26.461 20.809,-48.211 44.066,-31.543 l 340.961,245 c 14.875,10.89 33.793,10.953 49.661,0 L 1024.6,407.738 c 22.75,-16 51.79,5.813 43.37,31.762 L 937.813,841.805 c -5.649,18.468 2.929,36.433 14.632,45.211 z M 285.773,936.727 13.457,1135.45 c -26.2539,19.85 -10.12497,53.01 14.4844,53.01 l 339.9296,0 c 16.059,0 33.516,-15.81 26.734,-37.16 L 328.547,951.02 c -6.52,-18.993 -28.582,-24.266 -42.774,-14.293 z" /></clipPath><linearGradient
       id="linearGradient40"
       spreadMethod="pad"
       gradientTransform="matrix(0,-1237.5,-1237.5,0,651.999,1639.79)"
       gradientUnits="userSpaceOnUse"
       y2="0"
       x2="1"
       y1="0"
       x1="0"><stop
         id="stop42"
         offset="0"
         style="stop-opacity:1;stop-color:#43b7bd" /><stop
         id="stop44"
         offset="1"
         style="stop-opacity:1;stop-color:#358caa" /></linearGradient></defs><g
     transform="matrix(1.25,0,0,-1.25,0,204.975)"
     id="g10"><g
       transform="scale(0.1,0.1)"
       id="g12"><path
         id="path14"
         style="fill:#142938;fill-opacity:1;fill-rule:nonzero;stroke:none"
         d="m 2365.62,1188.08 -59.44,0 c -12.71,0 -23.12,-10.4 -23.12,-23.12 l 0,-605.269 c 0,-12.711 10.41,-23.121 23.12,-23.121 l 59.44,0 c 12.71,0 23.12,10.41 23.12,23.121 l 0,605.269 c 0,12.72 -10.41,23.12 -23.12,23.12" /><path
         id="path16"
         style="fill:#142938;fill-opacity:1;fill-rule:nonzero;stroke:none"
         d="m 3024.51,1188.13 -471.39,0 c -12.71,0 -23.11,-10.4 -23.11,-23.12 l 0,-59.44 c 0,-12.71 10.4,-23.11 23.11,-23.11 l 182.86,0 0,-522.722 c 0,-12.707 10.4,-23.109 23.12,-23.109 l 59.44,0 c 12.71,0 23.11,10.402 23.11,23.109 l 0,522.722 182.86,0 c 12.71,0 23.12,10.4 23.12,23.11 l 0,59.44 c 0,12.72 -10.41,23.12 -23.12,23.12" /><path
         id="path18"
         style="fill:#142938;fill-opacity:1;fill-rule:nonzero;stroke:none"
         d="m 4184.16,1188.08 -471.39,0 c -12.71,0 -23.11,-10.4 -23.11,-23.12 l 0,-59.44 c 0,-12.71 10.4,-23.11 23.11,-23.11 l 182.86,0 0,-522.719 c 0,-12.711 10.4,-23.121 23.12,-23.121 l 59.44,0 c 12.71,0 23.11,10.41 23.11,23.121 l 0,522.719 182.86,0 c 12.71,0 23.12,10.4 23.12,23.11 l 0,59.44 c 0,12.72 -10.41,23.12 -23.12,23.12" /><path
         id="path20"
         style="fill:#142938;fill-opacity:1;fill-rule:nonzero;stroke:none"
         d="m 4408.82,803.324 102.48,249.156 102.48,-249.156 -204.96,0 z m 169.76,363.376 c -4.84,11.76 -19.2,21.38 -31.91,21.38 l -70.74,0 c -12.72,0 -27.08,-9.62 -31.91,-21.38 L 4193.64,557.949 c -4.84,-11.75 1.61,-21.379 14.32,-21.379 l 68.03,0 c 12.71,0 27.07,9.629 31.91,21.379 l 57.45,139.688 291.9,0 57.45,-139.688 c 4.83,-11.75 19.19,-21.379 31.91,-21.379 l 68.02,0 c 12.72,0 19.16,9.629 14.33,21.379 L 4578.58,1166.7" /><path
         id="path22"
         style="fill:#142938;fill-opacity:1;fill-rule:nonzero;stroke:none"
         d="m 5052.29,887.082 0,195.308 195.64,0 c 53.84,0 97.65,-43.8 97.65,-97.652 0,-53.859 -43.81,-97.656 -97.65,-97.656 l -195.64,0 z m 406.48,-331.043 -150.19,234.602 c 82.59,25.863 142.69,103.089 142.69,194.097 0,112.122 -91.22,203.342 -203.34,203.342 l -278.19,0 c -12.72,0 -23.12,-10.4 -23.12,-23.12 l 0,-605.269 c 0,-12.711 10.4,-23.121 23.12,-23.121 l 59.44,0 c 12.71,0 23.11,10.41 23.11,23.121 l 0,221.704 136.73,0 144.28,-225.356 c 6.85,-10.699 22.87,-19.469 35.58,-19.469 l 79.24,0 c 12.71,0 17.51,8.77 10.65,19.469" /><path
         id="path24"
         style="fill:#142938;fill-opacity:1;fill-rule:nonzero;stroke:none"
         d="m 2111.4,1188.08 -426.34,0 c -12.71,0 -23.12,-10.4 -23.12,-23.12 l 0,-605.269 c 0,-12.711 10.41,-23.121 23.12,-23.121 l 59.46,0 c 12.71,0 23.11,10.41 23.11,23.121 l 0,243.832 271.05,0 c 12.71,0 23.12,10.403 23.12,23.118 l 0,59.453 c 0,12.715 -10.41,23.117 -23.12,23.117 l -271.05,0 0,173.179 343.77,0 c 12.71,0 23.12,10.4 23.12,23.12 l 0,59.45 c 0,12.72 -10.41,23.12 -23.12,23.12" /><path
         id="path26"
         style="fill:#142938;fill-opacity:1;fill-rule:nonzero;stroke:none"
         d="m 3561.82,850.637 c -10.1,10.086 -22.29,19.613 -36.23,28.332 -20.1,13.082 -42.69,23.261 -67.14,30.273 -24.15,6.879 -51.51,13.946 -81.34,20.981 -48.54,10.418 -82.35,23.578 -100.53,39.14 -18,14.563 -26.69,34.117 -25.84,58.067 1.7,13.7 6.02,24.54 12.86,32.21 6.84,7.73 13.4,13.86 19.47,18.22 21.56,14.65 50.03,22.08 84.63,22.08 55.09,0 99.93,-17.34 133.29,-51.53 l 4.88,-5 c 4.49,-5.5 12.18,-10.19 23.52,-1.43 l 51.61,39.91 c 5.45,4.22 8.67,9.22 9.29,14.45 0.57,4.77 -1.04,9.69 -4.59,14.14 -0.11,0.16 -2.62,3.96 -10.54,12.06 -21.91,22.39 -47,40.6 -74.61,54.1 -41.08,19.2 -85.77,28.94 -132.85,28.94 -27.83,0 -54.18,-3.56 -78.29,-10.55 -24.06,-7.02 -45.98,-16.76 -65.16,-28.96 -22.78,-14.91 -41.19,-33.99 -54.71,-56.7 -13.58,-22.76 -21.35,-47.17 -23.09,-72.53 -2.63,-28.86 1.36,-56.809 11.87,-83.117 5.3,-12.352 12.41,-24.321 21.1,-35.59 8.63,-11.278 18.83,-21.918 30.33,-31.641 31.41,-25.336 80.07,-45.262 144.63,-59.222 24.51,-5.25 46.55,-10.758 65.48,-16.364 19.08,-5.652 35.75,-12.898 49.56,-21.531 25.79,-16.32 39.3,-38.531 40.16,-66.008 1.72,-31.797 -10.92,-56.637 -37.56,-73.828 -15.57,-10.391 -32.41,-17.18 -50.08,-20.168 -17.68,-3.031 -33.72,-4.562 -47.67,-4.562 -64.47,0 -120.06,25.687 -165.24,76.339 l -4.6,5.165 c -6.38,7.96 -14.16,8.449 -23.14,1.472 l -55.74,-43.535 c -4.16,-3.242 -6.5,-7.195 -6.95,-11.777 -0.56,-5.504 1.74,-11.575 6.48,-17.102 67.38,-77.101 151.22,-116.191 249.19,-116.191 61.09,0 113.32,13.718 155.29,40.8 27.96,19.25 49.91,44.079 65.22,73.801 15.29,29.719 22.17,61.657 20.42,94.879 -0.88,31.485 -9.75,61.219 -26.38,88.395 -7.81,12.164 -16.9,23.461 -27,33.582" /><path
         id="path28"
         style="fill:#142938;fill-opacity:1;fill-rule:nonzero;stroke:none"
         d="m 5661.07,600.789 -23.28,-40.367 -23.28,40.367 -5.64,0 0,-64.219 6.2,0 0,49.789 22.72,-39.39 22.72,39.39 0,-49.789 6.2,0 0,64.219 -5.64,0" /><path
         id="path30"
         style="fill:#142938;fill-opacity:1;fill-rule:nonzero;stroke:none"
         d="m 5545.42,594.629 21.43,0 0,-58.059 6.19,0 0,58.059 21.43,0 0,6.16 -49.05,0 0,-6.16" /><g
         id="g32"><g
           clip-path="url(#clipPath36)"
           id="g34"><path
             id="path46"
             style="fill:url(#linearGradient40);fill-opacity:1;fill-rule:nonzero;stroke:none"
             d="m 952.445,887.016 339.905,250.244 c 22.07,16.16 10.65,51.2 -16.45,51.2 l -419.701,0 c -17.719,0 -34.406,10.31 -41.801,33.01 l -129.359,398.35 c -9.086,26.75 -45.351,26.5 -54.059,0 L 248.289,439.852 c -8.476,-26.461 20.809,-48.211 44.066,-31.543 l 340.961,245 c 14.875,10.89 33.793,10.953 49.661,0 L 1024.6,407.738 c 22.75,-16 51.79,5.813 43.37,31.762 L 937.813,841.805 c -5.649,18.468 2.929,36.433 14.632,45.211 z M 285.773,936.727 13.457,1135.45 c -26.2539,19.85 -10.12497,53.01 14.4844,53.01 l 339.9296,0 c 16.059,0 33.516,-15.81 26.734,-37.16 L 328.547,951.02 c -6.52,-18.993 -28.582,-24.266 -42.774,-14.293" /></g></g><path
         id="path48"
         style="fill:#42b7bd;fill-opacity:1;fill-rule:nonzero;stroke:none"
         d="m 1753.33,105.578 c 8.97,0 17.23,1.641 24.76,4.91 7.52,3.282 14.01,7.832 19.47,13.653 5.46,5.828 9.71,12.808 12.74,20.941 3.03,8.129 4.55,17.039 4.55,26.758 0,9.461 -1.52,18.262 -4.55,26.398 -3.03,8.121 -7.28,15.153 -12.74,21.114 -5.46,5.937 -11.95,10.558 -19.47,13.828 -7.53,3.281 -15.79,4.922 -24.76,4.922 -9.23,0 -17.66,-1.641 -25.3,-4.922 -7.65,-3.27 -14.2,-7.891 -19.66,-13.828 -5.47,-5.961 -9.78,-12.993 -12.93,-21.114 -3.16,-8.136 -4.73,-16.937 -4.73,-26.398 0,-9.719 1.57,-18.629 4.73,-26.758 3.15,-8.133 7.46,-15.113 12.93,-20.941 5.46,-5.821 12.01,-10.371 19.66,-13.653 7.64,-3.269 16.07,-4.91 25.3,-4.91 z m 65.16,133.602 c 8.25,-8.731 14.5,-18.86 18.75,-30.391 4.24,-11.527 6.37,-23.848 6.37,-36.949 0,-13.11 -2.13,-25.43 -6.37,-36.949 -4.25,-11.539 -10.5,-21.661 -18.75,-30.403 -8.5,-8.988 -18.32,-15.8278 -29.49,-20.5661 -11.17,-4.7422 -23.05,-7.1016 -35.67,-7.1016 -12.14,0 -23.73,2.7891 -34.78,8.3711 -11.04,5.5781 -19.71,12.5 -26.02,20.7496 l -1.09,0 0,-22.5699 -28.76,0 0,270.4879 28.76,0 0,-116.129 1.09,0 c 6.31,8.008 14.98,14.86 26.02,20.571 11.05,5.699 22.64,8.558 34.78,8.558 12.62,0 24.5,-2.371 35.67,-7.097 11.17,-4.742 20.99,-11.59 29.49,-20.582" /><path
         id="path50"
         style="fill:#42b7bd;fill-opacity:1;fill-rule:nonzero;stroke:none"
         d="m 1929.89,86.2813 -73.9,174.3907 31.3,0 58.26,-137.621 58.25,137.621 31.31,0 L 1924.43,0 l -31.31,0 36.77,86.2813" /><path
         id="path52"
         style="fill:#42b7bd;fill-opacity:1;fill-rule:nonzero;stroke:none"
         d="m 2138.5,83.3711 0,270.4879 160.9,0 0,-30.211 -130.69,0 0,-87.378 109.58,0 0,-30.211 -109.58,0 0,-122.6879 -30.21,0" /><path
         id="path54"
         style="fill:#42b7bd;fill-opacity:1;fill-rule:nonzero;stroke:none"
         d="m 2333.98,260.672 0,-177.3009 28.76,0 0,177.3009 -28.76,0 z m 34.22,52.058 c 0,-5.589 -1.94,-10.32 -5.82,-14.199 -3.88,-3.89 -8.62,-5.832 -14.2,-5.832 -5.58,0 -10.25,1.942 -14.01,5.832 -3.77,3.879 -5.65,8.61 -5.65,14.199 0,5.571 1.88,10.239 5.65,14.008 3.76,3.762 8.43,5.653 14.01,5.653 5.58,0 10.32,-1.891 14.2,-5.653 3.88,-3.769 5.82,-8.437 5.82,-14.008" /><path
         id="path56"
         style="fill:#42b7bd;fill-opacity:1;fill-rule:nonzero;stroke:none"
         d="m 2411.89,260.672 25.85,0 0,69.168 28.76,0 0,-69.168 45.87,0 0,-28.762 -45.87,0 0,-95.379 c 0,-7.293 2.24,-13.179 6.74,-17.66 4.48,-4.492 10.25,-6.742 17.29,-6.742 l 21.84,0 0,-28.7579 -24.39,0 c -15.05,0 -27.18,4.5508 -36.41,13.6484 -9.22,9.1095 -13.83,21.1795 -13.83,36.2305 l 0,98.66 -25.85,0 0,28.762" /><path
         id="path58"
         style="fill:#42b7bd;fill-opacity:1;fill-rule:nonzero;stroke:none"
         d="m 2653.98,105.578 c 8.98,0 17.23,1.641 24.76,4.91 7.52,3.282 14.01,7.832 19.47,13.653 5.46,5.828 9.71,12.808 12.75,20.941 3.02,8.129 4.55,17.039 4.55,26.758 0,9.461 -1.53,18.262 -4.55,26.398 -3.04,8.121 -7.29,15.153 -12.75,21.114 -5.46,5.937 -11.95,10.558 -19.47,13.828 -7.53,3.281 -15.78,4.922 -24.76,4.922 -9.22,0 -17.65,-1.641 -25.3,-4.922 -7.65,-3.27 -14.2,-7.891 -19.66,-13.828 -5.47,-5.961 -9.77,-12.993 -12.93,-21.114 -3.15,-8.136 -4.72,-16.937 -4.72,-26.398 0,-9.719 1.57,-18.629 4.72,-26.758 3.16,-8.133 7.46,-15.113 12.93,-20.941 5.46,-5.821 12.01,-10.371 19.66,-13.653 7.65,-3.269 16.08,-4.91 25.3,-4.91 z m 65.16,133.602 c 8.25,-8.731 14.5,-18.86 18.75,-30.391 4.25,-11.527 6.38,-23.848 6.38,-36.949 0,-13.11 -2.13,-25.43 -6.38,-36.949 -4.25,-11.539 -10.5,-21.661 -18.75,-30.403 -8.5,-8.988 -18.32,-15.8278 -29.48,-20.5661 -11.17,-4.7422 -23.06,-7.1016 -35.68,-7.1016 -12.13,0 -23.73,2.7891 -34.77,8.3711 -11.05,5.5781 -19.72,12.5 -26.03,20.7496 l -1.09,0 0,-22.5699 -28.76,0 0,270.4879 28.76,0 0,-116.129 1.09,0 c 6.31,8.008 14.98,14.86 26.03,20.571 11.04,5.699 22.64,8.558 34.77,8.558 12.62,0 24.51,-2.371 35.68,-7.097 11.16,-4.742 20.98,-11.59 29.48,-20.582" /><path
         id="path60"
         style="fill:#42b7bd;fill-opacity:1;fill-rule:nonzero;stroke:none"
         d="m 2784.68,260.672 0,-177.3009 28.76,0 0,177.3009 -28.76,0 z m 34.22,52.058 c 0,-5.589 -1.95,-10.32 -5.82,-14.199 -3.89,-3.89 -8.63,-5.832 -14.2,-5.832 -5.59,0 -10.26,1.942 -14.02,5.832 -3.77,3.879 -5.64,8.61 -5.64,14.199 0,5.571 1.87,10.239 5.64,14.008 3.76,3.762 8.43,5.653 14.02,5.653 5.57,0 10.31,-1.891 14.2,-5.653 3.87,-3.769 5.82,-8.437 5.82,-14.008" /><path
         id="path62"
         style="fill:#42b7bd;fill-opacity:1;fill-rule:nonzero;stroke:none"
         d="m 2855.3,260.672 25.85,0 0,69.168 28.76,0 0,-69.168 45.87,0 0,-28.762 -45.87,0 0,-95.379 c 0,-7.293 2.24,-13.179 6.74,-17.66 4.48,-4.492 10.24,-6.742 17.29,-6.742 l 21.84,0 0,-28.7579 -24.39,0 c -15.05,0 -27.18,4.5508 -36.41,13.6484 -9.22,9.1095 -13.83,21.1795 -13.83,36.2305 l 0,98.66 -25.85,0 0,28.762" /></g></g></svg>