<?xml version="1.0" encoding="UTF-8"?>
<svg width="62px" height="759px" viewBox="0 0 62 759" version="1.1" xmlns="http://www.w3.org/2000/svg" xmlns:xlink="http://www.w3.org/1999/xlink">
    <!-- Generator: Sketch 41.2 (35397) - http://www.bohemiancoding.com/sketch -->
    <title>center_icons</title>
    <desc>Created with Sketch.</desc>
    <defs>
        <circle id="path-1" cx="21" cy="21.7938696" r="21"></circle>
        <mask id="mask-2" maskContentUnits="userSpaceOnUse" maskUnits="objectBoundingBox" x="0" y="0" width="42" height="42" fill="white">
            <use xlink:href="#path-1"></use>
        </mask>
        <polygon id="path-3" points="24.3385417 11.2887467 24.3385417 0.515835526 17.7793257 0.515835526 17.7793257 11.2887467 24.3385417 11.2887467"></polygon>
        <circle id="path-5" cx="21" cy="21.1959131" r="21"></circle>
        <mask id="mask-6" maskContentUnits="userSpaceOnUse" maskUnits="objectBoundingBox" x="0" y="0" width="42" height="42" fill="white">
            <use xlink:href="#path-5"></use>
        </mask>
        <circle id="path-7" cx="21" cy="21.5979565" r="21"></circle>
        <mask id="mask-8" maskContentUnits="userSpaceOnUse" maskUnits="objectBoundingBox" x="0" y="0" width="42" height="42" fill="white">
            <use xlink:href="#path-7"></use>
        </mask>
        <circle id="path-9" cx="21" cy="21" r="21"></circle>
        <mask id="mask-10" maskContentUnits="userSpaceOnUse" maskUnits="objectBoundingBox" x="0" y="0" width="42" height="42" fill="white">
            <use xlink:href="#path-9"></use>
        </mask>
        <linearGradient x1="100%" y1="0%" x2="100%" y2="100%" id="linearGradient-11">
            <stop stop-color="#02D8DD" offset="0%"></stop>
            <stop stop-color="#01B0B9" offset="100%"></stop>
        </linearGradient>
        <polygon id="path-12" points="21.6616941 21.9908333 0 21.9908333 0 10.9954931 0 0.000152777778 21.6616941 0.000152777778 21.6616941 21.9908333"></polygon>
    </defs>
    <g id="Page-1" stroke="none" stroke-width="1" fill="none" fill-rule="evenodd">
        <g id="January-Promo" transform="translate(-652.000000, -1112.000000)">
            <g id="center_icons" transform="translate(652.000000, 1112.000000)">
                <path d="M31.5,45.5 L31.5,709.503012" id="center_icon_line" stroke="#BFBFBF" stroke-linecap="square" stroke-dasharray="3,3"></path>
                <g id="icon_06_bentArrow" transform="translate(10.000000, 716.000000)">
                    <use id="Oval-Copy-4" stroke="#DFDFDF" mask="url(#mask-2)" stroke-width="2" fill="#FFFFFF" xlink:href="#path-1"></use>
                    <g id="icon" opacity="0.300000012" transform="translate(8.000000, 9.793870)">
                        <path d="M11.80875,18.8039526 C11.80875,18.9490645 11.693125,19.0655776 11.5514583,19.0655776 L0.781666667,19.0655776 C0.349375,19.0655776 0.000416666667,18.7096829 0.000416666667,18.2711697 L0.000416666667,18.2711697 C0.000416666667,17.8326566 0.349375,17.4767618 0.781666667,17.4767618 L9.98895833,17.4767618 C10.130625,17.4767618 10.24625,17.3602487 10.24625,17.2151368 L10.24625,5.33609079 C10.24625,5.17403158 10.3754167,5.04268947 10.5347917,5.04268947 L21.7452083,5.04268947 L21.7452083,6.63150526 L12.0972917,6.63150526 C11.9379167,6.63150526 11.80875,6.76284737 11.80875,6.92490658 L11.80875,18.8039526 Z" id="Fill-1" fill="#1C202C"></path>
                        <mask id="mask-4" fill="white">
                            <use xlink:href="#path-3"></use>
                        </mask>
                        <g id="Clip-4"></g>
                        <path d="M24.1338542,5.38513224 L19.1026042,0.685415132 C18.8442708,0.444974342 18.4442708,0.461921711 18.2078125,0.723546711 L17.9515625,1.00635592 C17.7151042,1.26904013 17.7317708,1.67683618 17.9890625,1.91727697 L21.3161458,5.02500066 C21.4494792,5.56625724 21.3609375,6.13717171 21.3432292,6.69749408 L17.9807292,9.89313224 C17.7244792,10.1367507 17.7109375,10.5445467 17.9505208,10.8040533 L18.2088542,11.0847441 C18.4473958,11.3442507 18.8484375,11.3580204 19.1036458,11.1154612 L24.1380208,6.32994803 C24.4078125,6.07361908 24.4057292,5.63934276 24.1338542,5.38513224" id="Fill-3" fill="#1C202C" mask="url(#mask-4)"></path>
                    </g>
                </g>
                <g id="icon_05_musicNote" transform="translate(10.000000, 645.000000)">
                    <use id="Oval-Copy-3" stroke="#DFDFDF" mask="url(#mask-6)" stroke-width="2" fill="#FFFFFF" xlink:href="#path-5"></use>
                    <path d="M17.4807007,11.5978938 C16.5829027,11.8493914 15.9636941,12.6505757 15.9636941,13.5621219 L15.9636941,14.6105591 L15.9636941,17.3144235 L15.9636941,24.925144 C14.9668661,24.3298269 13.7251842,24.0868187 12.4116784,24.4094148 C10.751024,24.8179657 9.43643,26.1603474 9.0968991,27.7966736 C8.50054353,30.6713866 10.7379652,33.1959131 13.57936,33.1959131 C16.1062535,33.1959131 18.1564978,31.1966664 18.1575861,28.7305043 L18.1575861,17.7686049 C18.1575861,17.1361468 18.5863527,16.5790318 19.2099142,16.4049997 L27.9506586,13.9547552 C28.8800157,13.6937071 29.8071962,14.3749791 29.8071962,15.3183603 L29.8071962,21.0720311 C28.8103683,20.476714 27.5686864,20.2337058 26.2551806,20.5563018 C24.5945262,20.9648528 23.2799322,22.3061733 22.9404013,23.9424994 C22.3429575,26.8172125 24.5803791,29.3428001 27.4228622,29.3428001 C29.8039315,29.3428001 31.7616754,27.564277 31.9782352,25.2954928 L32,25.2954928 L32,12.8193019 L32,10.9017654 L32,10.2406557 C32,8.88129528 30.6647294,7.90183418 29.3251059,8.27642765 L17.4807007,11.5978938 Z" id="radio-icon" fill="#1C202C" opacity="0.300000012"></path>
                </g>
                <g id="icon_04_fitStarPentagon" transform="translate(10.000000, 574.000000)">
                    <use id="Oval-Copy-2" stroke="#DFDFDF" mask="url(#mask-8)" stroke-width="2" fill="#FFFFFF" xlink:href="#path-7"></use>
                    <path d="M24.8104794,18.3815277 L19.6999386,18.3815277 L19.6999386,20.4562731 L24.2039147,20.4562731 L24.2039147,22.406097 L19.6999386,22.406097 L19.6999386,26.1799497 L17.6230675,26.1799497 L17.6230675,16.4317038 L24.8104794,16.4317038 L24.8104794,18.3815277 Z M31.9209075,24.1611133 L28.487091,12.1974761 C28.2341442,11.317784 27.3010327,10.5979565 26.411912,10.5979565 L15.5876493,10.5979565 C14.6993746,10.5979565 13.7654171,11.317784 13.5133162,12.1974761 L10.0786538,24.1611133 C9.83162879,25.0233338 10.1860927,26.1869383 10.8671034,26.7469012 L20.001106,34.2579164 C20.5509904,34.7104293 21.446879,34.7121764 21.9993013,34.2579164 L31.1333039,26.7469012 C31.8143146,26.1869383 32.1687785,25.0233338 31.9209075,24.1611133 L31.9209075,24.1611133 Z" id="freestyle-icon" fill="#1C202C" opacity="0.300000012"></path>
                </g>
                <g id="icon_03_chatBalloon" transform="translate(10.000000, 504.000000)">
                    <use id="Oval" stroke="#DFDFDF" mask="url(#mask-10)" stroke-width="2" fill="#FFFFFF" xlink:href="#path-9"></use>
                    <path d="M18.9772201,30.1802174 C18.7509091,30.4776087 18.3060574,30.4756522 18.0826603,30.1763043 L15.9273636,27.2865217 C15.8166364,27.1319565 15.6379187,27.04 15.4485167,27.04 L12.9493828,27.04 C11.8731914,27.04 11,26.1605435 11,25.0756522 L11,14.9633696 C11,13.8784783 11.8722201,13 12.9493828,13 L29.9605885,13 C31.0367799,13 31.9099713,13.8784783 31.9099713,14.9633696 L31.9099713,25.0766304 C31.9099713,26.1605435 31.0367799,27.04 29.9605885,27.04 L21.6541005,27.04 C21.4705263,27.04 21.2986077,27.1251087 21.1878804,27.2718478 L18.9772201,30.1802174 Z" id="Fill-1" fill="#BABCBF"></path>
                </g>
                <g id="icon_02_paperStack" transform="translate(10.000000, 408.000000)">
                    <circle id="hover/selected-state" fill="url(#linearGradient-11)" cx="21" cy="21" r="21"></circle>
                    <g id="programs-icon" transform="translate(11.000000, 12.000000)" fill="#FFFFFF">
                        <path d="M10.4111636,11.0194071 C10.2533455,11.0194071 10.0948909,10.9776214 9.95361818,10.8934071 L1.09543636,5.60526429 C0.803345455,5.43105 0.634709091,5.11026429 0.655072727,4.76826429 C0.676072727,4.42626429 0.881618182,4.12862143 1.19216364,3.99105 L10.0509818,0.07605 C10.2800727,-0.0255214286 10.5428909,-0.0255214286 10.7713455,0.07605 L19.6301636,3.99105 C19.9413455,4.12862143 20.1468909,4.42626429 20.1672545,4.76826429 C20.1882545,5.11026429 20.0196182,5.43105 19.7275273,5.60526429 L10.8687091,10.8934071 C10.7280727,10.9776214 10.5696182,11.0194071 10.4111636,11.0194071 Z M10.3292,14.5063286 L0.486563636,8.61582857 C0.323654545,8.51811429 0.269563636,8.30532857 0.366290909,8.14075714 C0.463018182,7.97554286 0.673654545,7.92154286 0.836563636,8.01925714 L10.3317455,13.7014714 C10.3813818,13.7304 10.4424727,13.7310429 10.4914727,13.7014714 L19.9872909,8.09897143 C20.1514727,8.00254286 20.3621091,8.05782857 20.4575636,8.22368571 C20.5530182,8.3889 20.4982909,8.60168571 20.3341091,8.69811429 L10.4889273,14.5069714 C10.4392909,14.5359 10.3782,14.5359 10.3292,14.5063286 Z M10.3292,17.8283571 L0.486563636,11.9378571 C0.323654545,11.8401429 0.269563636,11.6273571 0.366290909,11.4627857 C0.463018182,11.2975714 0.673654545,11.2435714 0.836563636,11.3412857 L10.3317455,17.0235 C10.3813818,17.0524286 10.4424727,17.0530714 10.4914727,17.0235 L19.9872909,11.421 C20.1514727,11.3245714 20.3621091,11.3798571 20.4575636,11.5457143 C20.5530182,11.7109286 20.4982909,11.9237143 20.3341091,12.0201429 L10.4889273,17.829 C10.4392909,17.8579286 10.3782,17.8579286 10.3292,17.8283571 Z" id="Combined-Shape"></path>
                    </g>
                </g>
                <g id="icon_01_fitbitLogo">
                    <circle id="Oval-Copy-5" fill="url(#linearGradient-11)" cx="31" cy="31" r="31"></circle>
                    <g id="fitbit-icon" transform="translate(20.000000, 20.000000)">
                        <mask id="mask-13" fill="white">
                            <use xlink:href="#path-12"></use>
                        </mask>
                        <g id="Clip-2"></g>
                        <path d="M1.32257595,9.65693056 C0.592090416,9.65693056 0,10.2584167 0,11.0003056 C0,11.7420417 0.592090416,12.3435278 1.32257595,12.3435278 C2.05306148,12.3435278 2.64530233,11.7420417 2.64530233,11.0003056 C2.64530233,10.2584167 2.05306148,9.65693056 1.32257595,9.65693056 L1.32257595,9.65693056 Z M5.85952893,14.1771667 C5.04525418,14.1771667 4.38516964,14.8475556 4.38516964,15.6745417 C4.38516964,16.5015278 5.04525418,17.1719167 5.85952893,17.1719167 C6.67380368,17.1719167 7.33388822,16.5015278 7.33388822,15.6745417 C7.33388822,14.8475556 6.67380368,14.1771667 5.85952893,14.1771667 L5.85952893,14.1771667 Z M5.85952893,9.43677778 C5.00930154,9.43677778 4.32003368,10.1368056 4.32003368,11.0003056 C4.32003368,11.8638056 5.00930154,12.5636806 5.85952893,12.5636806 C6.70975633,12.5636806 7.39902419,11.8638056 7.39902419,11.0003056 C7.39902419,10.1368056 6.70975633,9.43677778 5.85952893,9.43677778 L5.85952893,9.43677778 Z M5.85952893,4.82823611 C5.04525418,4.82823611 4.38516964,5.498625 4.38516964,6.32561111 C4.38516964,7.15259722 5.04525418,7.82298611 5.85952893,7.82298611 C6.67380368,7.82298611 7.33388822,7.15259722 7.33388822,6.32561111 C7.33388822,5.498625 6.67380368,4.82823611 5.85952893,4.82823611 L5.85952893,4.82823611 Z M19.4717417,8.77616667 C18.2622888,8.77616667 17.2817894,9.77181944 17.2817894,11.0003056 C17.2817894,12.2286389 18.2622888,13.2244444 19.4717417,13.2244444 C20.6813452,13.2244444 21.6616941,12.2286389 21.6616941,11.0003056 C21.6616941,9.77181944 20.6813452,8.77616667 19.4717417,8.77616667 L19.4717417,8.77616667 Z M14.8743161,13.7367083 C13.8205576,13.7367083 12.9662686,14.6043333 12.9662686,15.6745417 C12.9662686,16.74475 13.8205576,17.612375 14.8743161,17.612375 C15.9280746,17.612375 16.7823636,16.74475 16.7823636,15.6745417 C16.7823636,14.6043333 15.9280746,13.7367083 14.8743161,13.7367083 L14.8743161,13.7367083 Z M14.8743161,8.99631944 C13.784605,8.99631944 12.9011327,9.89343056 12.9011327,11.0003056 C12.9011327,12.1070278 13.784605,13.0041389 14.8743161,13.0041389 C15.9640272,13.0041389 16.8474995,12.1070278 16.8474995,11.0003056 C16.8474995,9.89343056 15.9640272,8.99631944 14.8743161,8.99631944 L14.8743161,8.99631944 Z M14.8743161,4.38777778 C13.8205576,4.38777778 12.9662686,5.25540278 12.9662686,6.32561111 C12.9662686,7.39581944 13.8205576,8.26344444 14.8743161,8.26344444 C15.9280746,8.26344444 16.7823636,7.39581944 16.7823636,6.32561111 C16.7823636,5.25540278 15.9280746,4.38777778 14.8743161,4.38777778 L14.8743161,4.38777778 Z M10.3960306,18.6969444 C9.49796666,18.6969444 8.769888,19.4362361 8.769888,20.3484722 C8.769888,21.2605556 9.49796666,22 10.3960306,22 C11.294245,22 12.0223237,21.2605556 12.0223237,20.3484722 C12.0223237,19.4362361 11.294245,18.6969444 10.3960306,18.6969444 L10.3960306,18.6969444 Z M10.3960306,13.9568611 C9.46201401,13.9568611 8.70490246,14.7259444 8.70490246,15.6745417 C8.70490246,16.6231389 9.46201401,17.3922222 10.3960306,17.3922222 C11.3300472,17.3922222 12.0873092,16.6231389 12.0873092,15.6745417 C12.0873092,14.7259444 11.3300472,13.9568611 10.3960306,13.9568611 L10.3960306,13.9568611 Z M10.3960306,9.21647222 C9.42606137,9.21647222 8.6397665,10.0151944 8.6397665,11.0003056 C8.6397665,11.9854167 9.42606137,12.7839861 10.3960306,12.7839861 C11.3659999,12.7839861 12.1524452,11.9854167 12.1524452,11.0003056 C12.1524452,10.0151944 11.3659999,9.21647222 10.3960306,9.21647222 L10.3960306,9.21647222 Z M10.3960306,4.60793056 C9.46201401,4.60793056 8.70490246,5.37701389 8.70490246,6.32561111 C8.70490246,7.27420833 9.46201401,8.04329167 10.3960306,8.04329167 C11.3300472,8.04329167 12.0873092,7.27420833 12.0873092,6.32561111 C12.0873092,5.37701389 11.3300472,4.60793056 10.3960306,4.60793056 L10.3960306,4.60793056 Z M12.0223237,1.65168056 C12.0223237,2.56391667 11.294245,3.30336111 10.3960306,3.30336111 C9.49796666,3.30336111 8.769888,2.56391667 8.769888,1.65168056 C8.769888,0.739597222 9.49796666,0.000152777778 10.3960306,0.000152777778 C11.294245,0.000152777778 12.0223237,0.739597222 12.0223237,1.65168056 L12.0223237,1.65168056 Z" id="Fill-1" fill="#FFFFFF" mask="url(#mask-13)"></path>
                    </g>
                </g>
            </g>
        </g>
    </g>
</svg>