<?xml version="1.0" encoding="UTF-8"?>
<svg width="42px" height="42px" viewBox="0 0 42 42" version="1.1" xmlns="http://www.w3.org/2000/svg" xmlns:xlink="http://www.w3.org/1999/xlink">
    <!-- Generator: Sketch 41.2 (35397) - http://www.bohemiancoding.com/sketch -->
    <title>icon_02_paperStack</title>
    <desc>Created with Sketch.</desc>
    <defs>
        <linearGradient x1="100%" y1="0%" x2="100%" y2="100%" id="linearGradient-1">
            <stop stop-color="#02D8DD" offset="0%"></stop>
            <stop stop-color="#01B0B9" offset="100%"></stop>
        </linearGradient>
    </defs>
    <g id="Page-1" stroke="none" stroke-width="1" fill="none" fill-rule="evenodd">
        <g id="January-Promo" transform="translate(-662.000000, -1520.000000)">
            <g id="center_icons" transform="translate(652.000000, 1112.000000)">
                <g id="icon_02_paperStack" transform="translate(10.000000, 408.000000)">
                    <circle id="hover/selected-state" fill="url(#linearGradient-1)" cx="21" cy="21" r="21"></circle>
                    <g id="programs-icon" transform="translate(11.000000, 12.000000)" fill="#FFFFFF">
                        <path d="M10.4111636,11.0194071 C10.2533455,11.0194071 10.0948909,10.9776214 9.95361818,10.8934071 L1.09543636,5.60526429 C0.803345455,5.43105 0.634709091,5.11026429 0.655072727,4.76826429 C0.676072727,4.42626429 0.881618182,4.12862143 1.19216364,3.99105 L10.0509818,0.07605 C10.2800727,-0.0255214286 10.5428909,-0.0255214286 10.7713455,0.07605 L19.6301636,3.99105 C19.9413455,4.12862143 20.1468909,4.42626429 20.1672545,4.76826429 C20.1882545,5.11026429 20.0196182,5.43105 19.7275273,5.60526429 L10.8687091,10.8934071 C10.7280727,10.9776214 10.5696182,11.0194071 10.4111636,11.0194071 Z M10.3292,14.5063286 L0.486563636,8.61582857 C0.323654545,8.51811429 0.269563636,8.30532857 0.366290909,8.14075714 C0.463018182,7.97554286 0.673654545,7.92154286 0.836563636,8.01925714 L10.3317455,13.7014714 C10.3813818,13.7304 10.4424727,13.7310429 10.4914727,13.7014714 L19.9872909,8.09897143 C20.1514727,8.00254286 20.3621091,8.05782857 20.4575636,8.22368571 C20.5530182,8.3889 20.4982909,8.60168571 20.3341091,8.69811429 L10.4889273,14.5069714 C10.4392909,14.5359 10.3782,14.5359 10.3292,14.5063286 Z M10.3292,17.8283571 L0.486563636,11.9378571 C0.323654545,11.8401429 0.269563636,11.6273571 0.366290909,11.4627857 C0.463018182,11.2975714 0.673654545,11.2435714 0.836563636,11.3412857 L10.3317455,17.0235 C10.3813818,17.0524286 10.4424727,17.0530714 10.4914727,17.0235 L19.9872909,11.421 C20.1514727,11.3245714 20.3621091,11.3798571 20.4575636,11.5457143 C20.5530182,11.7109286 20.4982909,11.9237143 20.3341091,12.0201429 L10.4889273,17.829 C10.4392909,17.8579286 10.3782,17.8579286 10.3292,17.8283571 Z" id="Combined-Shape"></path>
                    </g>
                </g>
            </g>
        </g>
    </g>
</svg>