<?xml version="1.0" encoding="UTF-8"?>
<svg width="62px" height="62px" viewBox="0 0 62 62" version="1.1" xmlns="http://www.w3.org/2000/svg" xmlns:xlink="http://www.w3.org/1999/xlink">
    <!-- Generator: Sketch 41.2 (35397) - http://www.bohemiancoding.com/sketch -->
    <title>icon_01_fitbitLogo</title>
    <desc>Created with Sketch.</desc>
    <defs>
        <linearGradient x1="100%" y1="0%" x2="100%" y2="100%" id="linearGradient-1">
            <stop stop-color="#02D8DD" offset="0%"></stop>
            <stop stop-color="#01B0B9" offset="100%"></stop>
        </linearGradient>
        <polygon id="path-2" points="21.6616941 21.9908333 0 21.9908333 0 10.9954931 0 0.000152777778 21.6616941 0.000152777778 21.6616941 21.9908333"></polygon>
    </defs>
    <g id="Page-1" stroke="none" stroke-width="1" fill="none" fill-rule="evenodd">
        <g id="January-Promo" transform="translate(-652.000000, -1112.000000)">
            <g id="center_icons" transform="translate(652.000000, 1112.000000)">
                <g id="icon_01_fitbitLogo">
                    <circle id="Oval-Copy-5" fill="url(#linearGradient-1)" cx="31" cy="31" r="31"></circle>
                    <g id="fitbit-icon" transform="translate(20.000000, 20.000000)">
                        <mask id="mask-3" fill="white">
                            <use xlink:href="#path-2"></use>
                        </mask>
                        <g id="Clip-2"></g>
                        <path d="M1.32257595,9.65693056 C0.592090416,9.65693056 0,10.2584167 0,11.0003056 C0,11.7420417 0.592090416,12.3435278 1.32257595,12.3435278 C2.05306148,12.3435278 2.64530233,11.7420417 2.64530233,11.0003056 C2.64530233,10.2584167 2.05306148,9.65693056 1.32257595,9.65693056 L1.32257595,9.65693056 Z M5.85952893,14.1771667 C5.04525418,14.1771667 4.38516964,14.8475556 4.38516964,15.6745417 C4.38516964,16.5015278 5.04525418,17.1719167 5.85952893,17.1719167 C6.67380368,17.1719167 7.33388822,16.5015278 7.33388822,15.6745417 C7.33388822,14.8475556 6.67380368,14.1771667 5.85952893,14.1771667 L5.85952893,14.1771667 Z M5.85952893,9.43677778 C5.00930154,9.43677778 4.32003368,10.1368056 4.32003368,11.0003056 C4.32003368,11.8638056 5.00930154,12.5636806 5.85952893,12.5636806 C6.70975633,12.5636806 7.39902419,11.8638056 7.39902419,11.0003056 C7.39902419,10.1368056 6.70975633,9.43677778 5.85952893,9.43677778 L5.85952893,9.43677778 Z M5.85952893,4.82823611 C5.04525418,4.82823611 4.38516964,5.498625 4.38516964,6.32561111 C4.38516964,7.15259722 5.04525418,7.82298611 5.85952893,7.82298611 C6.67380368,7.82298611 7.33388822,7.15259722 7.33388822,6.32561111 C7.33388822,5.498625 6.67380368,4.82823611 5.85952893,4.82823611 L5.85952893,4.82823611 Z M19.4717417,8.77616667 C18.2622888,8.77616667 17.2817894,9.77181944 17.2817894,11.0003056 C17.2817894,12.2286389 18.2622888,13.2244444 19.4717417,13.2244444 C20.6813452,13.2244444 21.6616941,12.2286389 21.6616941,11.0003056 C21.6616941,9.77181944 20.6813452,8.77616667 19.4717417,8.77616667 L19.4717417,8.77616667 Z M14.8743161,13.7367083 C13.8205576,13.7367083 12.9662686,14.6043333 12.9662686,15.6745417 C12.9662686,16.74475 13.8205576,17.612375 14.8743161,17.612375 C15.9280746,17.612375 16.7823636,16.74475 16.7823636,15.6745417 C16.7823636,14.6043333 15.9280746,13.7367083 14.8743161,13.7367083 L14.8743161,13.7367083 Z M14.8743161,8.99631944 C13.784605,8.99631944 12.9011327,9.89343056 12.9011327,11.0003056 C12.9011327,12.1070278 13.784605,13.0041389 14.8743161,13.0041389 C15.9640272,13.0041389 16.8474995,12.1070278 16.8474995,11.0003056 C16.8474995,9.89343056 15.9640272,8.99631944 14.8743161,8.99631944 L14.8743161,8.99631944 Z M14.8743161,4.38777778 C13.8205576,4.38777778 12.9662686,5.25540278 12.9662686,6.32561111 C12.9662686,7.39581944 13.8205576,8.26344444 14.8743161,8.26344444 C15.9280746,8.26344444 16.7823636,7.39581944 16.7823636,6.32561111 C16.7823636,5.25540278 15.9280746,4.38777778 14.8743161,4.38777778 L14.8743161,4.38777778 Z M10.3960306,18.6969444 C9.49796666,18.6969444 8.769888,19.4362361 8.769888,20.3484722 C8.769888,21.2605556 9.49796666,22 10.3960306,22 C11.294245,22 12.0223237,21.2605556 12.0223237,20.3484722 C12.0223237,19.4362361 11.294245,18.6969444 10.3960306,18.6969444 L10.3960306,18.6969444 Z M10.3960306,13.9568611 C9.46201401,13.9568611 8.70490246,14.7259444 8.70490246,15.6745417 C8.70490246,16.6231389 9.46201401,17.3922222 10.3960306,17.3922222 C11.3300472,17.3922222 12.0873092,16.6231389 12.0873092,15.6745417 C12.0873092,14.7259444 11.3300472,13.9568611 10.3960306,13.9568611 L10.3960306,13.9568611 Z M10.3960306,9.21647222 C9.42606137,9.21647222 8.6397665,10.0151944 8.6397665,11.0003056 C8.6397665,11.9854167 9.42606137,12.7839861 10.3960306,12.7839861 C11.3659999,12.7839861 12.1524452,11.9854167 12.1524452,11.0003056 C12.1524452,10.0151944 11.3659999,9.21647222 10.3960306,9.21647222 L10.3960306,9.21647222 Z M10.3960306,4.60793056 C9.46201401,4.60793056 8.70490246,5.37701389 8.70490246,6.32561111 C8.70490246,7.27420833 9.46201401,8.04329167 10.3960306,8.04329167 C11.3300472,8.04329167 12.0873092,7.27420833 12.0873092,6.32561111 C12.0873092,5.37701389 11.3300472,4.60793056 10.3960306,4.60793056 L10.3960306,4.60793056 Z M12.0223237,1.65168056 C12.0223237,2.56391667 11.294245,3.30336111 10.3960306,3.30336111 C9.49796666,3.30336111 8.769888,2.56391667 8.769888,1.65168056 C8.769888,0.739597222 9.49796666,0.000152777778 10.3960306,0.000152777778 C11.294245,0.000152777778 12.0223237,0.739597222 12.0223237,1.65168056 L12.0223237,1.65168056 Z" id="Fill-1" fill="#FFFFFF" mask="url(#mask-3)"></path>
                    </g>
                </g>
            </g>
        </g>
    </g>
</svg>