<?xml version="1.0" encoding="UTF-8" standalone="no"?>
<svg width="114px" height="30px" viewBox="0 0 114 30" version="1.1" xmlns="http://www.w3.org/2000/svg" xmlns:xlink="http://www.w3.org/1999/xlink">
    <!-- Generator: Sketch 40.1 (33804) - http://www.bohemiancoding.com/sketch -->
    <title>Fitbit_logo_RGB (1)</title>
    <desc>Created with Sketch.</desc>
    <defs>
        <polygon id="path-1" points="29.5386737 29.9875 0 29.9875 0 14.9938542 0 0.000208333333 29.5386737 0.000208333333 29.5386737 29.9875"></polygon>
    </defs>
    <g id="Design" stroke="none" stroke-width="1" fill="none" fill-rule="evenodd">
        <g id="fitstar.home.final" transform="translate(-834.000000, -2356.000000)">
            <g id="Recommendations" transform="translate(0.000000, 2299.000000)">
                <g id="logos" transform="translate(634.000000, 56.000000)">
                    <g id="Fitbit_logo_RGB-(1)" transform="translate(200.000000, 1.000000)">
                        <g id="Group-3">
                            <mask id="mask-2" fill="white">
                                <use xlink:href="#path-1"></use>
                            </mask>
                            <g id="Clip-2"></g>
                            <path d="M1.80351266,13.1685417 C0.807396022,13.1685417 0,13.98875 0,15.0004167 C0,16.011875 0.807396022,16.8320833 1.80351266,16.8320833 C2.79962929,16.8320833 3.60723045,16.011875 3.60723045,15.0004167 C3.60723045,13.98875 2.79962929,13.1685417 1.80351266,13.1685417 L1.80351266,13.1685417 Z M7.99026673,19.3325 C6.87989207,19.3325 5.97977679,20.2466667 5.97977679,21.374375 C5.97977679,22.5020833 6.87989207,23.41625 7.99026673,23.41625 C9.10064139,23.41625 10.0007567,22.5020833 10.0007567,21.374375 C10.0007567,20.2466667 9.10064139,19.3325 7.99026673,19.3325 L7.99026673,19.3325 Z M7.99026673,12.8683333 C6.83086573,12.8683333 5.89095502,13.8229167 5.89095502,15.0004167 C5.89095502,16.1779167 6.83086573,17.1322917 7.99026673,17.1322917 C9.14966772,17.1322917 10.0895784,16.1779167 10.0895784,15.0004167 C10.0895784,13.8229167 9.14966772,12.8683333 7.99026673,12.8683333 L7.99026673,12.8683333 Z M7.99026673,6.58395833 C6.87989207,6.58395833 5.97977679,7.498125 5.97977679,8.62583333 C5.97977679,9.75354167 6.87989207,10.6677083 7.99026673,10.6677083 C9.10064139,10.6677083 10.0007567,9.75354167 10.0007567,8.62583333 C10.0007567,7.498125 9.10064139,6.58395833 7.99026673,6.58395833 L7.99026673,6.58395833 Z M26.5523751,11.9675 C24.903121,11.9675 23.5660765,13.3252083 23.5660765,15.0004167 C23.5660765,16.6754167 24.903121,18.0333333 26.5523751,18.0333333 C28.2018343,18.0333333 29.5386737,16.6754167 29.5386737,15.0004167 C29.5386737,13.3252083 28.2018343,11.9675 26.5523751,11.9675 L26.5523751,11.9675 Z M20.2831583,18.731875 C18.846215,18.731875 17.6812754,19.915 17.6812754,21.374375 C17.6812754,22.83375 18.846215,24.016875 20.2831583,24.016875 C21.7201017,24.016875 22.8850413,22.83375 22.8850413,21.374375 C22.8850413,19.915 21.7201017,18.731875 20.2831583,18.731875 L20.2831583,18.731875 Z M20.2831583,12.2677083 C18.7971886,12.2677083 17.5924537,13.4910417 17.5924537,15.0004167 C17.5924537,16.5095833 18.7971886,17.7329167 20.2831583,17.7329167 C21.7691281,17.7329167 22.973863,16.5095833 22.973863,15.0004167 C22.973863,13.4910417 21.7691281,12.2677083 20.2831583,12.2677083 L20.2831583,12.2677083 Z M20.2831583,5.98333333 C18.846215,5.98333333 17.6812754,7.16645833 17.6812754,8.62583333 C17.6812754,10.0852083 18.846215,11.2683333 20.2831583,11.2683333 C21.7201017,11.2683333 22.8850413,10.0852083 22.8850413,8.62583333 C22.8850413,7.16645833 21.7201017,5.98333333 20.2831583,5.98333333 L20.2831583,5.98333333 Z M14.1764054,25.4958333 C12.9517727,25.4958333 11.9589382,26.5039583 11.9589382,27.7479167 C11.9589382,28.9916667 12.9517727,30 14.1764054,30 C15.4012432,30 16.3940778,28.9916667 16.3940778,27.7479167 C16.3940778,26.5039583 15.4012432,25.4958333 14.1764054,25.4958333 L14.1764054,25.4958333 Z M14.1764054,19.0320833 C12.9027464,19.0320833 11.8703215,20.0808333 11.8703215,21.374375 C11.8703215,22.6679167 12.9027464,23.7166667 14.1764054,23.7166667 C15.4500644,23.7166667 16.4826944,22.6679167 16.4826944,21.374375 C16.4826944,20.0808333 15.4500644,19.0320833 14.1764054,19.0320833 L14.1764054,19.0320833 Z M14.1764054,12.5679167 C12.85372,12.5679167 11.7814998,13.6570833 11.7814998,15.0004167 C11.7814998,16.34375 12.85372,17.4327083 14.1764054,17.4327083 C15.4990908,17.4327083 16.5715162,16.34375 16.5715162,15.0004167 C16.5715162,13.6570833 15.4990908,12.5679167 14.1764054,12.5679167 L14.1764054,12.5679167 Z M14.1764054,6.28354167 C12.9027464,6.28354167 11.8703215,7.33229167 11.8703215,8.62583333 C11.8703215,9.919375 12.9027464,10.968125 14.1764054,10.968125 C15.4500644,10.968125 16.4826944,9.919375 16.4826944,8.62583333 C16.4826944,7.33229167 15.4500644,6.28354167 14.1764054,6.28354167 L14.1764054,6.28354167 Z M16.3940778,2.25229167 C16.3940778,3.49625 15.4012432,4.50458333 14.1764054,4.50458333 C12.9517727,4.50458333 11.9589382,3.49625 11.9589382,2.25229167 C11.9589382,1.00854167 12.9517727,0.000208333333 14.1764054,0.000208333333 C15.4012432,0.000208333333 16.3940778,1.00854167 16.3940778,2.25229167 L16.3940778,2.25229167 Z" id="Fill-1" fill="#1FA7A9" mask="url(#mask-2)"></path>
                        </g>
                        <path d="M52.2257634,11.05125 C52.0114014,11.05125 51.8362195,11.229375 51.8362195,11.446875 L51.8362195,27.3522917 C51.8362195,27.5697917 52.0114014,27.7479167 52.2257634,27.7479167 L54.1096875,27.7479167 C54.3238444,27.7479167 54.4992315,27.5697917 54.4992315,27.3522917 L54.4992315,11.446875 C54.4992315,11.229375 54.3238444,11.05125 54.1096875,11.05125 L52.2257634,11.05125" id="Fill-4" fill="#FFFFFF"></path>
                        <path d="M53.1673152,4.368125 C52.1730448,4.368125 51.3644179,5.18979167 51.3644179,6.19979167 C51.3644179,7.20958333 52.1730448,8.03125 53.1673152,8.03125 C54.1617908,8.03125 54.971033,7.20958333 54.971033,6.19979167 C54.971033,5.18979167 54.1617908,4.368125 53.1673152,4.368125" id="Fill-5" fill="#FFFFFF"></path>
                        <path d="M92.4417162,11.05125 C92.2273542,11.05125 92.0521722,11.229375 92.0521722,11.446875 L92.0521722,27.3522917 C92.0521722,27.5697917 92.2273542,27.7479167 92.4417162,27.7479167 L94.3254351,27.7479167 C94.5397971,27.7479167 94.7149791,27.5697917 94.7149791,27.3522917 L94.7149791,11.446875 C94.7149791,11.229375 94.5397971,11.05125 94.3254351,11.05125 L92.4417162,11.05125" id="Fill-6" fill="#FFFFFF"></path>
                        <path d="M93.3830628,4.36854167 C92.3957668,4.36854167 91.5674474,5.19 91.5674474,6.19979167 C91.5674474,7.209375 92.3957668,8.03104167 93.3830628,8.03104167 C94.370564,8.03104167 95.1740625,7.209375 95.1740625,6.19979167 C95.1740625,5.19 94.370564,4.36854167 93.3830628,4.36854167" id="Fill-7" fill="#FFFFFF"></path>
                        <path d="M111.6545,26.3533333 L111.6545,25.8341667 L112.016762,25.8341667 C112.12302,25.8341667 112.206303,25.856875 112.266817,25.901875 C112.32733,25.9470833 112.35769,26.0072917 112.35769,26.0825 L112.35769,26.09 C112.35769,26.1779167 112.323638,26.24375 112.25574,26.2877083 C112.187636,26.3314583 112.101891,26.3533333 111.998095,26.3533333 L111.6545,26.3533333 L111.6545,26.3533333 Z M112.422306,26.3495833 C112.49041,26.284375 112.524256,26.1954167 112.524256,26.0825 L112.524256,26.075 C112.524256,26.0220833 112.51441,25.9739583 112.494717,25.93 C112.47482,25.88625 112.450204,25.8491667 112.420665,25.8191667 C112.378408,25.7764583 112.322818,25.7427083 112.253894,25.7175 C112.184764,25.6925 112.108045,25.6797917 112.024147,25.6797917 L111.495319,25.6797917 L111.495319,27.056875 L111.6545,27.056875 L111.6545,26.5039583 L111.968556,26.5039583 L112.398306,27.056875 L112.605693,27.056875 L112.15379,26.4775 C112.264971,26.4575 112.354613,26.4147917 112.422306,26.3495833 L112.422306,26.3495833 Z" id="Fill-8" fill="#FFFFFF"></path>
                        <path d="M111.963223,27.6095833 C111.304137,27.6095833 110.767719,27.065 110.767719,26.3958333 C110.767719,25.726875 111.304137,25.1822917 111.963223,25.1822917 C112.622104,25.1822917 113.158317,25.726875 113.158317,26.3958333 C113.158317,27.065 112.622104,27.6095833 111.963223,27.6095833 L111.963223,27.6095833 Z M111.963223,25.0433333 C111.228853,25.0433333 110.631307,25.6502083 110.631307,26.3958333 C110.631307,27.1416667 111.228853,27.7485417 111.963223,27.7485417 C112.697592,27.7485417 113.294729,27.1416667 113.294729,26.3958333 C113.294729,25.6502083 112.697592,25.0433333 111.963223,25.0433333 L111.963223,25.0433333 Z" id="Fill-9" fill="#FFFFFF"></path>
                        <path d="M67.7654702,13.7558333 C67.9798322,13.7558333 68.1550141,13.5777083 68.1550141,13.3602083 L68.1550141,11.446875 C68.1550141,11.229375 67.9798322,11.05125 67.7654702,11.05125 L63.7496186,11.05125 L63.7496186,4.9225 C63.7496186,4.705 63.5742315,4.526875 63.3600746,4.526875 L61.4757403,4.526875 C61.2615834,4.526875 61.0861963,4.705 61.0861963,4.9225 L61.0861963,11.05125 L59.0654498,11.05125 C58.8512929,11.05125 58.6759059,11.229375 58.6759059,11.446875 L58.6759059,13.3602083 C58.6759059,13.5777083 58.8512929,13.7558333 59.0654498,13.7558333 L61.0861963,13.7558333 L61.0861963,23.0341667 C61.0861963,25.8529167 62.950838,27.7466667 65.7260567,27.7466667 L67.7654702,27.7466667 C67.9798322,27.7466667 68.1550141,27.5685417 68.1550141,27.3510417 L68.1550141,25.4377083 C68.1550141,25.2202083 67.9798322,25.0420833 67.7654702,25.0420833 L65.9619575,25.0420833 C64.659375,25.0420833 63.7496186,24.0927083 63.7496186,22.7333333 L63.7496186,13.7558333 L67.7654702,13.7558333" id="Fill-10" fill="#FFFFFF"></path>
                        <path d="M107.580392,13.7558333 C107.794754,13.7558333 107.969936,13.5777083 107.969936,13.3602083 L107.969936,11.446875 C107.969936,11.229375 107.794754,11.05125 107.580392,11.05125 L103.564335,11.05125 L103.564335,4.9225 C103.564335,4.705 103.389153,4.526875 103.174791,4.526875 L101.290662,4.526875 C101.0763,4.526875 100.901118,4.705 100.901118,4.9225 L100.901118,11.05125 L98.8803713,11.05125 C98.6662144,11.05125 98.4908273,11.229375 98.4908273,11.446875 L98.4908273,13.3602083 C98.4908273,13.5777083 98.6662144,13.7558333 98.8803713,13.7558333 L100.901118,13.7558333 L100.901118,23.0341667 C100.901118,25.8529167 102.765759,27.7466667 105.540978,27.7466667 L107.580392,27.7466667 C107.794754,27.7466667 107.969936,27.5685417 107.969936,27.3510417 L107.969936,25.4377083 C107.969936,25.2202083 107.794754,25.0420833 107.580392,25.0420833 L105.776674,25.0420833 C104.474091,25.0420833 103.564335,24.0927083 103.564335,22.7333333 L103.564335,13.7558333 L107.580392,13.7558333" id="Fill-11" fill="#FFFFFF"></path>
                        <path d="M40.3193388,13.7558333 L40.3193388,27.3522917 C40.3193388,27.5697917 40.4947259,27.7479167 40.7088828,27.7479167 L42.5928068,27.7479167 C42.8069637,27.7479167 42.9823508,27.5697917 42.9823508,27.3522917 L42.9823508,13.7558333 L47.4127724,13.7558333 C47.6271344,13.7558333 47.8023163,13.5779167 47.8023163,13.3602083 L47.8023163,11.446875 C47.8023163,11.229375 47.6271344,11.05125 47.4127724,11.05125 L42.9823508,11.05125 L42.9823508,7.37270833 C42.9823508,5.99520833 43.9335437,4.95645833 45.1946898,4.95645833 L47.4127724,4.95645833 C47.6271344,4.95645833 47.8023163,4.77854167 47.8023163,4.56083333 L47.8023163,2.64770833 C47.8023163,2.43020833 47.6271344,2.25208333 47.4127724,2.25208333 L45.360846,2.25208333 C42.5809092,2.25208333 40.3193388,4.54916667 40.3193388,7.37270833 L40.3193388,11.05125 L38.2983872,11.05125 C38.0840252,11.05125 37.9088432,11.229375 37.9088432,11.446875 L37.9088432,13.3602083 C37.9088432,13.5779167 38.0840252,13.7558333 38.2983872,13.7558333 L40.3193388,13.7558333" id="Fill-12" fill="#FFFFFF"></path>
                        <path d="M80.2460567,25.6679167 C76.2246666,25.6679167 74.7918258,22.4322917 74.7918258,19.4041667 C74.7918258,15.6839583 76.9838568,13.184375 80.2460567,13.184375 C83.5082567,13.184375 85.7000825,15.6839583 85.7000825,19.4041667 C85.7000825,22.4322917 84.2672417,25.6679167 80.2460567,25.6679167 L80.2460567,25.6679167 Z M86.0859341,12.986875 C84.6091953,11.3685417 82.5353198,10.4770833 80.2460567,10.4770833 C78.1881815,10.4770833 76.0351255,11.404375 74.7924412,12.755625 L74.7924412,2.64791667 C74.7924412,2.43020833 74.6170541,2.25229167 74.4028973,2.25229167 L72.5158962,2.25229167 C72.3015342,2.25229167 72.1263523,2.43020833 72.1263523,2.64791667 L72.1263523,19.4041667 C72.1263523,25.60125 76.2043586,28.3752083 80.2460567,28.3752083 C84.2875497,28.3752083 88.3657612,25.60125 88.3657612,19.4041667 C88.3657612,16.8410417 87.5774424,14.621875 86.0859341,12.986875 L86.0859341,12.986875 Z" id="Fill-13" fill="#FFFFFF"></path>
                    </g>
                </g>
            </g>
        </g>
    </g>
</svg>